<?xml version="1.0" encoding="utf-8"?>
<!-- Generator: Adobe Illustrator 15.0.0, SVG Export Plug-In . SVG Version: 6.00 Build 0)  -->
<!DOCTYPE svg PUBLIC "-//W3C//DTD SVG 1.1//EN" "http://www.w3.org/Graphics/SVG/1.1/DTD/svg11.dtd">
<svg version="1.1" id="Layer_1" xmlns="http://www.w3.org/2000/svg" xmlns:xlink="http://www.w3.org/1999/xlink" x="0px" y="0px"
	 width="828.502px" height="828.707px" viewBox="0 0 828.502 828.707" enable-background="new 0 0 828.502 828.707"
	 xml:space="preserve">
<g>
	<path fill="#444F57" d="M528.293,791.787l-1.062-226.693h37.656v-18.83c0-30.893,15.08-57.592,37.658-74.953
		c15.814-11.653,35.014-19.192,56.49-19.192c21.109,0,40.676,7.539,56.488,19.192c22.58,17.361,37.658,44.062,37.658,74.953v18.83
		l37.004-0.61l0.654-263.003H0v414.249c0,41.41,35.69,77.119,77.118,77.119"/>
	<polyline fill="#444F57" points="790.842,792.556 490.309,791.808 489.569,828.707 828.502,828.707 828.502,527.433 
		790.28,527.433 	"/>
	<path fill="#444F57" d="M790.842,75.524c0-41.43-33.908-75.318-75.316-75.318H75.319c-41.428,0-75.318,33.888-75.318,75.318V263.82
		h790.841V75.524z"/>
	<path fill="#444F57" d="M602.545,546.263v18.83h112.979v-18.83c0-31.26-25.229-56.487-56.488-56.487
		C627.778,489.775,602.545,515.003,602.545,546.263z"/>
	<path fill="#FFFFFF" d="M376.592,113.184c-20.705,0-37.658,16.954-37.658,37.659c0,20.705,16.953,37.659,37.658,37.659
		s37.658-16.954,37.658-37.659C414.25,130.138,397.297,113.184,376.592,113.184z"/>
	<path fill="#FFFFFF" d="M150.637,113.184c-20.704,0-37.658,16.954-37.658,37.659c0,20.705,16.955,37.659,37.658,37.659
		c20.704,0,37.658-16.954,37.658-37.659C188.295,130.138,171.342,113.184,150.637,113.184z"/>
	<path fill="#FFFFFF" d="M263.616,113.184c-20.707,0-37.66,16.954-37.66,37.659c0,20.705,16.955,37.659,37.66,37.659
		s37.658-16.954,37.658-37.659C301.274,130.138,284.321,113.184,263.616,113.184z"/>
	<path fill="#FFFFFF" d="M150.637,188.502c-20.703,0-37.658-16.954-37.658-37.659c0-20.705,16.954-37.659,37.658-37.659
		c20.705,0,37.658,16.954,37.658,37.659C188.295,171.548,171.341,188.502,150.637,188.502z"/>
	<path fill="#FFFFFF" d="M263.616,188.502c-20.705,0-37.66-16.954-37.66-37.659c0-20.705,16.953-37.659,37.66-37.659
		c20.705,0,37.658,16.954,37.658,37.659C301.274,171.548,284.321,188.502,263.616,188.502z"/>
	<path fill="#FFFFFF" d="M376.592,188.502c-20.705,0-37.658-16.954-37.658-37.659c0-20.705,16.953-37.659,37.658-37.659
		s37.658,16.954,37.658,37.659C414.25,171.548,397.297,188.502,376.592,188.502z"/>
</g>
</svg>
