<?xml version="1.0" encoding="utf-8"?>
<!-- Generator: Adobe Illustrator 18.1.0, SVG Export Plug-In . SVG Version: 6.00 Build 0)  -->
<svg version="1.1" id="Layer_1" xmlns="http://www.w3.org/2000/svg" xmlns:xlink="http://www.w3.org/1999/xlink" x="0px" y="0px"
	 viewBox="0 0 71.9 71.9" enable-background="new 0 0 71.9 71.9" xml:space="preserve">
<g>
	<g>
		<path fill="#7A8C98" d="M13.7,10.3c-1.9,0-3.4,1.5-3.4,3.4c0,1.9,1.5,3.4,3.4,3.4c1.9,0,3.4-1.5,3.4-3.4
			C17.1,11.8,15.6,10.3,13.7,10.3z"/>
		<path fill-rule="evenodd" clip-rule="evenodd" fill="#7A8C98" d="M68.4,24L2.8,24.1L2.6,6.3c0-1.9,1.5-3.4,3.4-3.4l59.8,0.2
			c1.9,0,3.4,1.5,3.4,3.4L68.4,24z M65,0H6.8C3.1,0,0,3.1,0,6.8V65c0,3.8,3.1,6.8,6.8,6.8h37.6v-3.4L6.2,68.6
			c-1.9,0-3.4-1.5-3.4-3.4L3,27.1l65.6-0.2l-0.2,14.2h3.4V6.8C71.9,3.1,68.8,0,65,0z"/>
		<path fill-rule="evenodd" clip-rule="evenodd" fill="#7A8C98" d="M68.4,49.6c0-2.8-1.4-5.2-3.4-6.8c-1.4-1.1-3.2-1.7-5.1-1.7
			c-2,0-3.7,0.7-5.1,1.7c-2.1,1.6-3.4,4-3.4,6.8v1.7h-3.4v20.5h24V51.3h-3.4V49.6z M65,51.3H54.8v-1.7c0-2.8,2.3-5.1,5.1-5.1
			c2.8,0,5.1,2.3,5.1,5.1V51.3z"/>
	</g>
	<path fill="#7A8C98" d="M24,10.3c-1.9,0-3.4,1.5-3.4,3.4c0,1.9,1.5,3.4,3.4,3.4c1.9,0,3.4-1.5,3.4-3.4C27.4,11.8,25.8,10.3,24,10.3
		z"/>
	<path fill="#7A8C98" d="M34.2,10.3c-1.9,0-3.4,1.5-3.4,3.4c0,1.9,1.5,3.4,3.4,3.4c1.9,0,3.4-1.5,3.4-3.4
		C37.6,11.8,36.1,10.3,34.2,10.3z"/>
</g>
</svg>
