<?xml version="1.0" encoding="utf-8"?>
<!-- Generator: Adobe Illustrator 18.1.1, SVG Export Plug-In . SVG Version: 6.00 Build 0)  -->
<svg version="1.1" id="Layer_1" xmlns="http://www.w3.org/2000/svg" xmlns:xlink="http://www.w3.org/1999/xlink" x="0px" y="0px"
	 viewBox="0 0 57 32.5" enable-background="new 0 0 57 32.5" xml:space="preserve">
<g>
	<path fill="#ffffff" d="M14.9,24.2c-0.2,0-0.4,0-0.6,0c-3.8-0.3-6.6-3.5-6.6-7.2c0-0.1,0-0.3,0-0.4c0-0.2-0.1-0.3-0.3-0.1c-0.5,0.8-0.9,1.8-1,2.9
		c0,0.2,0,0.4,0,0.6c0,3.2,2.5,6,5.8,6.3c0.2,0,0.4,0,0.6,0c1.9,0,3.6-0.8,4.7-2.1c0.1-0.1,0-0.3-0.2-0.2
		C16.5,24.1,15.7,24.2,14.9,24.2z"/>
	<path fill="#ffffff" d="M53,10.6c-2.3-2-5.3-4.4-5.3-4.4h0c-1.7-1.4-4-2.2-6.4-2.2l-2.4-2.4v0c-1-1-2.4-1.7-4-1.5c-1.9,0.2-3.5,1.4-4.1,3.1
		c-0.7-0.4-1.4-0.7-2.3-0.7c-0.8,0-1.6,0.2-2.2,0.6c-0.7-1.6-2.2-2.9-4.1-3c-1.5-0.1-3,0.5-4,1.5l0,0l-2.4,2.4
		c-2.4,0-4.6,0.8-6.4,2.2h0c0,0-3.1,2.4-5.3,4.4c-2.2,2-3.7,4.9-4,8.2c0,0.4,0,0.8,0,1.1c0,6.5,5,12,11.6,12.6c0.4,0,0.7,0,1.1,0
		c6.2,0,11.5-4.5,12.5-10.6c1,0.5,2.1,0.9,3.3,0.9c1.2,0,2.4-0.4,3.4-0.9c1,6.1,6.3,10.6,12.5,10.6c0.4,0,0.7,0,1.1,0
		C52,31.9,57,26.4,57,19.9c0-0.4,0-0.7,0-1.1C56.7,15.5,55.2,12.5,53,10.6z M21.2,20.6c-0.4,4.4-4.1,7.7-8.5,7.7c-0.2,0-0.5,0-0.8,0
		c-4.4-0.4-7.8-4.1-7.8-8.5c0-0.3,0-0.5,0-0.7c0.4-4.4,4.1-7.8,8.5-7.8c0,0,0,0,0,0c0.3,0,0.5,0,0.7,0c4.5,0.4,7.8,4.1,7.8,8.5
		C21.2,20.1,21.2,20.3,21.2,20.6L21.2,20.6z M28.5,19.6c-1.9,0-3.4-1.5-3.4-3.4c0-1.9,1.5-3.4,3.4-3.4c1.9,0,3.4,1.5,3.4,3.4
		C31.9,18.1,30.3,19.6,28.5,19.6z M45.1,28.3c-0.3,0-0.5,0-0.8,0c-4.4,0-8.1-3.3-8.5-7.7h0c0-0.3,0-0.5,0-0.8c0-4.4,3.3-8.1,7.8-8.5
		c0.2,0,0.5,0,0.7,0c0,0,0,0,0,0c4.4,0,8.1,3.3,8.5,7.8c0,0.2,0,0.5,0,0.7C52.8,24.2,49.5,27.9,45.1,28.3z"/>
	<path fill="#ffffff" d="M46.6,24.2c-0.2,0-0.4,0-0.6,0c-3.8-0.3-6.6-3.5-6.6-7.2c0-0.1,0-0.3,0-0.4c0-0.2-0.1-0.3-0.3-0.1c-0.5,0.8-0.9,1.8-1,2.9
		c0,0.2,0,0.4,0,0.6c0,3.2,2.5,6,5.8,6.3c0.2,0,0.4,0,0.6,0c1.9,0,3.5-0.8,4.7-2.1c0.1-0.1,0-0.3-0.2-0.2
		C48.1,24.1,47.4,24.2,46.6,24.2z"/>
</g>
</svg>
