<?xml version="1.0" encoding="utf-8"?>
<!-- Generator: Adobe Illustrator 18.1.1, SVG Export Plug-In . SVG Version: 6.00 Build 0)  -->
<svg version="1.1" id="Layer_1" xmlns="http://www.w3.org/2000/svg" xmlns:xlink="http://www.w3.org/1999/xlink" x="0px" y="0px"
	 viewBox="0 0 52.5 52.5" enable-background="new 0 0 52.5 52.5" xml:space="preserve">
<g>
	<path fill-rule="evenodd" clip-rule="evenodd" fill="#ffffff" d="M3.1,6.1h2c0,2.5-0.4,5.1,1.6,7c2.1,2.1,5.5,2.1,7.6,0
		c2-2,1.6-4.5,1.6-7h4.8c0,2.5-0.4,5.1,1.6,7c2.1,2.1,5.5,2.1,7.6,0c2-2,1.6-4.5,1.6-7h4.8c0,2.5-0.4,5.1,1.6,7
		c2.1,2.1,5.5,2.1,7.6,0c2-2,1.6-4.5,1.6-7h2c1.7,0,3.1,1.4,3.1,3.1v40c0,1.7-1.4,3.1-3.1,3.1H3.1C1.4,52.5,0,51,0,49.3v-40
		C0,7.5,1.4,6.1,3.1,6.1L3.1,6.1z M41.9,0C40.3,0,39,1.3,39,2.9v6.4c0,1.6,1.3,2.9,2.9,2.9l0,0c1.6,0,2.9-1.3,2.9-2.9V2.9
		C44.8,1.3,43.5,0,41.9,0L41.9,0L41.9,0z M26.2,0c-1.6,0-2.9,1.3-2.9,2.9v6.4c0,1.6,1.3,2.9,2.9,2.9l0,0c1.6,0,2.9-1.3,2.9-2.9V2.9
		C29.2,1.3,27.8,0,26.2,0L26.2,0L26.2,0z M10.6,0C9,0,7.7,1.3,7.7,2.9v6.4c0,1.6,1.3,2.9,2.9,2.9l0,0c1.6,0,2.9-1.3,2.9-2.9V2.9
		C13.5,1.3,12.2,0,10.6,0L10.6,0L10.6,0z M25.8,41.2c0-0.4-0.4-0.8-0.8-0.8h-8c0.2-0.2,0.5-0.5,0.9-0.9c1.6-1.4,3.3-2.7,4.8-4.2
		c1.3-1.3,2.5-2.8,2.9-4.7c0.1-0.4,0.1-0.9,0.1-1.3c0-0.9-0.2-1.7-0.5-2.4c-0.3-0.7-0.8-1.4-1.4-2c-0.5-0.5-1.1-0.9-1.8-1.2
		c-0.1-0.1-0.3-0.1-0.4-0.2c-2-0.7-4.7-0.6-6.6,0.4c-1.2,0.6-2.1,1.6-2.7,2.9c-0.4,0.8-0.6,1.7-0.7,2.7c0,0,0,0,0,0
		c0,0.4,0.3,0.8,0.7,0.9l2.5,0.3v0c0,0,0,0,0.1,0c0.4,0,0.8-0.4,0.8-0.8c0-1.3,0.5-2.5,1.8-2.9c0.4-0.1,0.8-0.2,1.3-0.2
		c1.1,0,2.2,0.5,2.7,1.6c0.1,0.3,0.2,0.6,0.2,1c0,0.5-0.2,1.1-0.5,1.7c-0.1,0.1-0.1,0.2-0.2,0.4c-0.5,0.8-1.2,1.4-1.8,2.1
		c-0.7,0.7-1.6,1.5-2.6,2.3c-1,0.8-1.9,1.6-2.5,2.3c-0.1,0.1-0.3,0.3-0.4,0.4c-0.5,0.6-1,1.1-1.4,1.8c-0.4,0.7-0.8,1.6-1,2.4
		c0,0.3-0.1,0.6-0.1,0.9c0,0,0,0,0,0c0,0.4,0.4,0.8,0.8,0.8H25c0.4,0,0.8-0.4,0.8-0.8V41.2L25.8,41.2z M27.5,37.5L27.5,37.5
		c-0.4,0.1-0.7,0.4-0.7,0.9c0.1,1.3,0.5,2.5,1.2,3.4c0.1,0.2,0.3,0.4,0.4,0.6c0.7,0.8,1.7,1.4,2.7,1.8c0.8,0.3,1.7,0.4,2.6,0.4
		c1.5,0,2.9-0.3,4-1c0.2-0.1,0.4-0.3,0.7-0.4c0.9-0.7,1.7-1.7,2.2-2.8c0.4-0.8,0.5-1.7,0.5-2.7c0-1-0.2-1.9-0.6-2.7
		c-0.1-0.2-0.2-0.3-0.2-0.5c-0.4-0.7-1-1.3-1.7-1.7c-0.1,0-0.1-0.1-0.2-0.1c0.7-0.6,1.3-1.4,1.5-2.4c0.1-0.5,0.2-0.9,0.2-1.4
		c0-0.5-0.1-1-0.2-1.5c-0.1-0.5-0.3-0.9-0.6-1.4c0,0,0,0,0-0.1c-0.3-0.5-0.6-0.9-1-1.2c-2.1-1.9-5.5-2.3-8-0.9
		c-0.2,0.1-0.4,0.2-0.6,0.3c-1.1,0.8-2,1.9-2.4,3.2c-0.1,0.2-0.1,0.4-0.2,0.7c-0.1,0.2-0.1,0.4-0.1,0.7c0,0,0,0,0,0.1
		c-0.1,0.4,0.2,0.8,0.6,0.9l2.4,0.4c0,0,0,0,0,0c0.4,0.1,0.8-0.2,0.9-0.7c0.1-0.7,0.3-1.3,0.6-1.8c0.2-0.4,0.6-0.7,1-0.9
		c0.1,0,0.1,0,0.1-0.1c0.7-0.3,1.7-0.2,2.4,0.2c0.1,0,0.1,0.1,0.2,0.1c0.1,0,0.1,0.1,0.2,0.1c0,0,0,0,0,0l0,0l0,0l0,0l0,0
		c0.8,0.7,0.9,2.2,0.2,3.1c-0.1,0.1-0.1,0.1-0.2,0.2c-0.3,0.3-0.8,0.5-1.1,0.6c-0.1,0-0.2,0.1-0.2,0.1c-0.5,0.1-1,0.2-1.5,0.1l0,0
		c-0.4,0-0.8,0.3-0.9,0.7l-0.3,2.1c0,0.1,0,0.2,0,0.3c0.1,0.4,0.5,0.7,1,0.6c0.3-0.1,0.6-0.1,0.9-0.2c0.2,0,0.4-0.1,0.6-0.1
		c0.5,0,0.9,0.1,1.2,0.2c0.4,0.1,0.7,0.4,1,0.6c0.2,0.2,0.4,0.5,0.6,0.8c0,0.1,0.1,0.1,0.1,0.2c0.3,0.8,0.3,1.8,0,2.5
		c-0.3,0.7-0.9,1.3-1.5,1.7c-0.1,0-0.1,0.1-0.2,0.1c-0.7,0.3-1.6,0.3-2.3,0.1c-0.7-0.3-1.2-0.8-1.5-1.5c-0.2-0.4-0.4-1-0.5-1.6
		c-0.1-0.4-0.5-0.7-0.9-0.6L27.5,37.5L27.5,37.5z M4.4,19.8v25.8c0,1.2,1,2.2,2.2,2.2h39.3c1.2,0,2.2-1,2.2-2.2V19.8H4.4z"/>
</g>
</svg>
