<?xml version="1.0" encoding="utf-8"?>
<!-- Generator: Adobe Illustrator 18.1.0, SVG Export Plug-In . SVG Version: 6.00 Build 0)  -->
<svg version="1.1" id="Layer_1" xmlns="http://www.w3.org/2000/svg" xmlns:xlink="http://www.w3.org/1999/xlink" x="0px" y="0px"
	 viewBox="0 0 59.4 59.4" enable-background="new 0 0 59.4 59.4" xml:space="preserve">
<path fill-rule="evenodd" clip-rule="evenodd" fill="#7A8C98" d="M4,29.7C4,15.5,15.5,4,29.7,4c14.2,0,25.7,11.5,25.7,25.7
	c0,14.2-11.5,25.7-25.7,25.7C15.5,55.4,4,43.9,4,29.7z M0,29.7c0,16.4,13.3,29.7,29.7,29.7c16.4,0,29.7-13.3,29.7-29.7
	C59.4,13.3,46.1,0,29.7,0C13.3,0,0,13.3,0,29.7z M13.9,33.1l2.6,2.5l13.2-12.7l13.2,12.7l2.6-2.5L29.7,17.8L13.9,33.1z"/>
</svg>
