<?xml version="1.0" encoding="utf-8"?>
<!-- Generator: Adobe Illustrator 16.0.4, SVG Export Plug-In . SVG Version: 6.00 Build 0)  -->
<!DOCTYPE svg PUBLIC "-//W3C//DTD SVG 1.1//EN" "http://www.w3.org/Graphics/SVG/1.1/DTD/svg11.dtd">
<svg version="1.1" id="Layer_1" xmlns="http://www.w3.org/2000/svg" xmlns:xlink="http://www.w3.org/1999/xlink" x="0px" y="0px"
	 width="22.574px" height="22.575px" viewBox="0 0 22.574 22.575" enable-background="new 0 0 22.574 22.575" xml:space="preserve">
<path d="M20.787,22.575h-19C0.802,22.575,0,21.773,0,20.787v-19C0,0.802,0.802,0,1.787,0h19c0.985,0,1.787,0.802,1.787,1.787v19
	C22.574,21.773,21.772,22.575,20.787,22.575"/>
<path fill="#FFFFFF" d="M14.505,18.988l-2.732-2.139l2.249-1.762l-0.176-0.225l0.161-0.236l-2.193-1.498l1.709-1.172l-0.255-0.371
	l0.062-0.059L11.697,9.77l1.148-1.237l-0.31-0.289l0.108-0.094l-0.959-1.08l0.959-1.079l-0.426-0.38l-0.916,1.03l-0.915-1.03
	l-0.428,0.38l0.96,1.079l-0.96,1.08l0.115,0.101L9.77,8.534l1.148,1.236l-1.632,1.757l0.062,0.059l-0.256,0.371l1.709,1.172
	l-2.192,1.498l0.163,0.236l-0.177,0.225l2.251,1.762l-2.735,2.139l0.353,0.45l2.845-2.228l2.844,2.228L14.505,18.988z M10.463,8.442
	L11.301,7.5l0.845,0.949l-0.838,0.902L10.463,8.442z M9.836,11.774l1.472-1.586l1.471,1.586l-1.471,1.007L9.836,11.774z
	 M9.255,14.877l2.054-1.403l2.052,1.403l-2.052,1.608L9.255,14.877z"/>
<path fill-rule="evenodd" clip-rule="evenodd" fill="#FFFFFF" d="M12.151,3.232c0,0.52-0.84,1.725-0.84,1.725
	S10.46,3.752,10.46,3.232c0-0.509,0.382-0.933,0.851-0.933C11.77,2.299,12.151,2.723,12.151,3.232"/>
<path fill="#B3C48D" d="M15.044,18.826L12.811,6.064h0.207V5.053h-0.383h-0.822h-1.011H9.979H9.551v1.011h0.251L7.568,18.826H6.938
	v1.013h0.453h0.945h2.465h1.011h2.465h0.945h0.414v-1.013H15.044z M12.859,11.428h-1.048V6.064h0.144L12.859,11.428z M10.801,6.064
	v5.364H9.752l0.904-5.364H10.801z M8.505,18.826l1.167-6.921h1.128v6.921H8.505z M11.812,18.826v-6.921h1.129l1.164,6.921H11.812z"
	/>
</svg>
