<?xml version="1.0" encoding="utf-8"?>
<!-- Generator: Adobe Illustrator 18.1.1, SVG Export Plug-In . SVG Version: 6.00 Build 0)  -->
<svg version="1.1" id="Layer_1" xmlns="http://www.w3.org/2000/svg" xmlns:xlink="http://www.w3.org/1999/xlink" x="0px" y="0px"
	 viewBox="0 85.7 612 619.7" enable-background="new 0 85.7 612 619.7" xml:space="preserve">
<path fill="#1E7CAF" d="M306,209.1L362.4,320l127.2,18.2l-91.8,86.1l22,121.4L306,488.3l-113.8,57.4l22-121.4l-91.8-86.1L249.6,320
	L306,209.1z M0,395.5c0,171.2,136.7,309.8,306,309.8s306-138.7,306-309.8S475.3,85.7,306,85.7S0,224.4,0,395.5 M28.7,395.5
	C28.7,240.6,153,115.3,306,115.3s277.3,125.3,277.3,281.1c0,154.9-124.3,281.1-277.3,281.1C153,676.7,28.7,551.4,28.7,395.5"/>
</svg>
