<?xml version="1.0" encoding="utf-8"?>
<!-- Generator: Adobe Illustrator 16.0.4, SVG Export Plug-In . SVG Version: 6.00 Build 0)  -->
<!DOCTYPE svg PUBLIC "-//W3C//DTD SVG 1.1//EN" "http://www.w3.org/Graphics/SVG/1.1/DTD/svg11.dtd">
<svg version="1.1" id="Layer_1" xmlns="http://www.w3.org/2000/svg" xmlns:xlink="http://www.w3.org/1999/xlink" x="0px" y="0px"
	 width="22.576px" height="22.575px" viewBox="0 0 22.576 22.575" enable-background="new 0 0 22.576 22.575" xml:space="preserve">
<path d="M20.788,22.575h-19C0.802,22.575,0,21.773,0,20.788v-19C0,0.802,0.802,0,1.788,0h19c0.985,0,1.788,0.802,1.788,1.788v19
	C22.576,21.773,21.773,22.575,20.788,22.575"/>
<rect x="10.419" y="2.832" fill-rule="evenodd" clip-rule="evenodd" fill="#FFFFFF" width="1.011" height="16.885"/>
<path fill="#B3C48D" d="M15.594,12.354c-0.333-0.498-0.854-0.909-1.559-1.234c-0.34-0.154-0.884-0.328-1.627-0.518v-3.87
	c0.383,0.097,0.703,0.249,0.956,0.454c0.477,0.392,0.756,0.969,0.835,1.734l1.535-0.117c-0.025-0.709-0.226-1.341-0.592-1.906
	c-0.369-0.558-0.896-0.983-1.581-1.273c-0.356-0.149-0.74-0.26-1.153-0.332v-2.46h-1.012v2.366
	c-0.067-0.002-0.135-0.006-0.204-0.006c-0.813,0-1.553,0.135-2.219,0.414C8.309,5.88,7.803,6.283,7.457,6.813
	C7.111,7.341,6.938,7.914,6.938,8.522c0,0.557,0.141,1.057,0.424,1.505c0.282,0.449,0.713,0.824,1.29,1.124
	c0.444,0.238,1.225,0.49,2.333,0.756c0.145,0.035,0.28,0.068,0.411,0.1v4.242c-0.623-0.017-1.19-0.13-1.697-0.351
	c-0.549-0.239-0.954-0.552-1.216-0.94c-0.261-0.387-0.427-0.884-0.499-1.486L6.478,13.6c0.019,0.808,0.241,1.536,0.663,2.174
	c0.421,0.642,0.998,1.122,1.739,1.44c0.686,0.295,1.525,0.452,2.517,0.472v2.031h1.012v-2.074c0.559-0.066,1.074-0.209,1.549-0.425
	c0.691-0.317,1.22-0.761,1.589-1.328c0.367-0.569,0.552-1.176,0.552-1.818C16.098,13.423,15.931,12.849,15.594,12.354
	 M11.361,10.348c-1.299-0.293-2.104-0.579-2.411-0.859C8.637,9.208,8.479,8.85,8.479,8.415c0-0.499,0.222-0.926,0.664-1.28
	c0.443-0.355,1.147-0.531,2.113-0.531c0.049,0,0.093,0.002,0.14,0.002v3.752C11.384,10.354,11.375,10.352,11.361,10.348
	 M14.215,15.239c-0.229,0.314-0.577,0.564-1.044,0.744c-0.234,0.093-0.489,0.162-0.763,0.206v-3.921
	c0.331,0.094,0.577,0.17,0.73,0.229c0.505,0.192,0.867,0.43,1.087,0.713c0.221,0.283,0.331,0.614,0.331,0.996
	C14.557,14.579,14.441,14.923,14.215,15.239"/>
</svg>
