<?xml version="1.0" encoding="utf-8"?>
<!-- Generator: Adobe Illustrator 18.1.1, SVG Export Plug-In . SVG Version: 6.00 Build 0)  -->
<svg version="1.1" id="Layer_1" xmlns="http://www.w3.org/2000/svg" xmlns:xlink="http://www.w3.org/1999/xlink" x="0px" y="0px"
	 viewBox="0 0 47.9 47.9" enable-background="new 0 0 47.9 47.9" xml:space="preserve">
<path fill="#44658e" d="M47.9,27.6v-7.4l-7-0.7c-0.4-1.6-1-3.1-1.9-4.5l4.5-5.5l-5.2-5.2l-5.5,4.5c-1.4-0.8-2.9-1.4-4.5-1.9l-0.7-7h-7.4l-0.7,7
	c-1.6,0.4-3.1,1-4.5,1.9L9.6,4.4L4.4,9.6l4.5,5.5C8.1,16.5,7.4,18,7,19.6l-7,0.7v7.4l7,0.7c0.4,1.6,1,3.1,1.9,4.5l-4.5,5.5l5.2,5.2
	l5.5-4.5c1.4,0.8,2.9,1.4,4.5,1.9l0.7,7h7.4l0.7-7c1.6-0.4,3.1-1,4.5-1.9l5.5,4.5l5.2-5.2L39,32.8c0.8-1.4,1.4-2.9,1.9-4.5
	L47.9,27.6z M24,33.2c-5.1,0-9.2-4.1-9.2-9.2c0-5.1,4.1-9.2,9.2-9.2c5.1,0,9.2,4.1,9.2,9.2C33.2,29,29,33.2,24,33.2z"/>
</svg>
