<?xml version="1.0" encoding="utf-8"?>
<!-- Generator: Adobe Illustrator 18.1.1, SVG Export Plug-In . SVG Version: 6.00 Build 0)  -->
<svg version="1.1" id="Layer_1" xmlns="http://www.w3.org/2000/svg" xmlns:xlink="http://www.w3.org/1999/xlink" x="0px" y="0px"
	 viewBox="0 0 47.9 47.9" enable-background="new 0 0 47.9 47.9" xml:space="preserve">
<path fill="#44658e" d="M24,0C10.7,0,0,10.7,0,24c0,13.2,10.7,24,24,24c13.2,0,24-10.7,24-24C47.9,10.7,37.2,0,24,0z M39.7,11.1
	c2.7,3.7,4.3,7.5,4.5,12h-8.3c-0.1-3.5-0.6-6.9-1.5-9.8C36.4,12.7,38.2,12,39.7,11.1L39.7,11.1z M38.5,9.8c-1.4,0.7-2.9,1.3-4.6,1.8
	c-1.1-2.9-2.5-5.4-4.2-7.1C33.1,5.5,36.1,7.4,38.5,9.8z M13.8,23c0.1-3.4,0.6-6.5,1.4-9.3c2.7,0.6,5.6,1,8.8,1c3.1,0,6.1-0.3,8.8-1
	c0.8,2.7,1.3,5.9,1.4,9.3H13.8z M34.1,24.9c-0.1,3.4-0.6,6.5-1.4,9.3c-2.7-0.6-5.6-1-8.8-1c-3.1,0-6.1,0.4-8.8,1
	c-0.8-2.7-1.3-5.9-1.4-9.3H34.1z M24,3.7c3.4,0,6.3,3.3,8.2,8.3c-2.5,0.6-5.3,0.9-8.2,0.9s-5.7-0.3-8.2-0.9C17.6,7,20.6,3.7,24,3.7z
	 M18.3,4.5c-1.7,1.7-3.2,4.1-4.2,7.1c-1.7-0.5-3.3-1.1-4.6-1.8C11.8,7.4,14.9,5.5,18.3,4.5z M8.2,11.1L8.2,11.1
	c1.5,0.9,3.3,1.6,5.2,2.2c-0.9,2.9-1.4,6.3-1.5,9.8H3.7C3.9,18.6,5.6,14.7,8.2,11.1z M3.7,24.9H12c0.1,3.5,0.6,6.8,1.5,9.7
	c-1.9,0.6-3.7,1.3-5.2,2.1C5.6,33.5,3.9,29.4,3.7,24.9z M9.4,38.1c1.3-0.7,2.9-1.3,4.6-1.8c1.1,2.9,2.5,5.4,4.2,7.1
	C14.9,42.4,11.8,40.6,9.4,38.1z M24,44.2C24,44.2,24,44.2,24,44.2C24,44.2,24,44.2,24,44.2c-3.4,0-6.4-3.3-8.2-8.3
	C18.3,35.3,21,35,24,35s5.7,0.3,8.2,0.9C30.3,40.9,27.3,44.2,24,44.2z M29.7,43.4c1.7-1.7,3.2-4.1,4.2-7.1c1.7,0.5,3.2,1.1,4.6,1.8
	C36.1,40.6,33.1,42.4,29.7,43.4z M39.7,36.7c-1.5-0.8-3.3-1.5-5.2-2.1c0.9-2.9,1.4-6.2,1.5-9.7h8.3C44,29.4,42.4,33.5,39.7,36.7z"/>
</svg>
