<?xml version="1.0" encoding="utf-8"?>
<!-- Generator: Adobe Illustrator 15.0.0, SVG Export Plug-In . SVG Version: 6.00 Build 0)  -->
<!DOCTYPE svg PUBLIC "-//W3C//DTD SVG 1.1//EN" "http://www.w3.org/Graphics/SVG/1.1/DTD/svg11.dtd">
<svg version="1.1" id="Layer_1" xmlns="http://www.w3.org/2000/svg" xmlns:xlink="http://www.w3.org/1999/xlink" x="0px" y="0px"
	 width="20.21px" height="19.79px" viewBox="0 0 20.21 19.79" enable-background="new 0 0 20.21 19.79" xml:space="preserve">
<path fill-rule="evenodd" clip-rule="evenodd" fill="#2C79B2" d="M20.21,10.11h-3.33v3.35h-2.12v-3.35h-3.33V7.99h3.33V4.64h2.12
	v3.35h3.33V10.11z M6.32,12.46c1.9,0,3.19,1.12,3.28,2.61c0.1,1.58-1.25,2.75-3.27,2.89c-2.05,0.15-3.75-0.77-3.85-2.35
	c-0.04-0.76,0.29-1.51,0.94-2.1c0.66-0.6,1.57-0.97,2.55-1.04L6.32,12.46z M8.26,3.85C8.76,5.63,8,7.5,6.78,7.84
	C6.64,7.88,6.5,7.9,6.35,7.9c-1.11,0-2.21-1.13-2.62-2.69C3.5,4.34,3.52,3.57,3.78,2.84c0.26-0.73,0.72-1.22,1.3-1.38
	C5.22,1.42,5.37,1.4,5.51,1.4C6.86,1.4,7.72,1.96,8.26,3.85z M9.03,19.07c1.74-0.85,2.62-2.32,2.62-4.37c0-1.99-1.34-3.17-2.32-4.03
	c-0.6-0.53-1.11-0.98-1.11-1.42c0-0.45,0.37-0.79,0.85-1.22c0.77-0.69,1.5-1.68,1.5-3.54c0-1.64-0.21-2.74-1.52-3.44
	C9.19,0.98,9.67,0.93,9.91,0.9c0.7-0.1,1.74-0.21,1.74-0.79V0H6.5C6.44,0,1.29,0.19,1.29,4.93c0,1.68,0.56,2.89,1.66,3.61
	C3.85,9.12,4.9,9.21,5.44,9.21L5.75,9.2c0,0-0.17,1.13,0.66,2.24H6.37c-1.44,0-6.15,0.3-6.15,4.19c0,3.96,4.33,4.16,5.2,4.16h0.1
	H5.7C6.26,19.79,7.7,19.72,9.03,19.07z"/>
</svg>
