<?xml version="1.0" encoding="utf-8"?>
<!-- Generator: Adobe Illustrator 16.0.4, SVG Export Plug-In . SVG Version: 6.00 Build 0)  -->
<!DOCTYPE svg PUBLIC "-//W3C//DTD SVG 1.1//EN" "http://www.w3.org/Graphics/SVG/1.1/DTD/svg11.dtd">
<svg version="1.1" id="Layer_1" xmlns="http://www.w3.org/2000/svg" xmlns:xlink="http://www.w3.org/1999/xlink" x="0px" y="0px"
	 width="22.575px" height="22.574px" viewBox="0 0 22.575 22.574" enable-background="new 0 0 22.575 22.574" xml:space="preserve">
<path d="M20.788,22.574h-19C0.802,22.574,0,21.772,0,20.788v-19C0,0.802,0.802,0,1.788,0h19c0.984,0,1.787,0.802,1.787,1.788v19
	C22.575,21.772,21.772,22.574,20.788,22.574"/>
<path fill="#FFFFFF" d="M17.843,13.852v-0.381h-1.205v-1.346h-0.379v1.346h-0.906v-1.346h-0.381v1.346h-0.905v-1.346h-0.382v1.346
	h-0.905v-1.346h-0.381v1.346h-0.905v-1.346h-0.38v1.346h-0.907v-1.346H9.825v1.346H8.919v-1.346h-0.38v1.346H7.633v-1.346H7.252
	v1.346H6.346v-1.346h-0.38v1.346H4.854v0.381h1.112v1.37H4.854v0.38h1.112v1.369H4.854v0.382h1.112v1.574h0.38v-1.574h0.906v1.574
	h0.381v-1.574h0.906v1.574h0.38v-1.574h0.906v1.574h0.381v-1.574h0.907v1.574h0.38v-1.574h0.905v1.574h0.381v-1.574h0.905v1.574
	h0.382v-1.574h0.905v1.574h0.381v-1.574h0.906v1.574h0.379v-1.574h1.205v-0.382h-1.205v-1.369h1.205v-0.38h-1.205v-1.37H17.843z
	 M14.972,15.222h-0.905v-1.37h0.905V15.222z M13.685,15.222h-0.905v-1.37h0.905V15.222z M12.398,15.222h-0.905v-1.37h0.905V15.222z
	 M11.113,15.222h-0.907v-1.37h0.907V15.222z M9.825,15.222H8.919v-1.37h0.906V15.222z M8.539,15.222H7.633v-1.37h0.906V15.222z
	 M6.346,13.852h0.905v1.37H6.346V13.852z M6.346,15.602h0.905v1.369H6.346V15.602z M7.633,15.602h0.906v1.369H7.633V15.602z
	 M8.919,15.602h0.906v1.369H8.919V15.602z M10.206,15.602h0.907v1.369h-0.907V15.602z M11.493,15.602h0.905v1.369h-0.905V15.602z
	 M12.779,15.602h0.905v1.369h-0.905V15.602z M14.066,15.602h0.905v1.369h-0.905V15.602z M16.259,16.971h-0.906v-1.369h0.906V16.971z
	 M16.259,15.222h-0.906v-1.37h0.906V15.222z"/>
<polygon fill-rule="evenodd" clip-rule="evenodd" fill="#FFFFFF" points="6.204,11.951 6.617,6.522 8.066,6.522 8.48,12.053 "/>
<polygon fill-rule="evenodd" clip-rule="evenodd" fill="#FFFFFF" points="10.107,11.951 10.521,6.522 11.968,6.522 12.382,12.053 
	"/>
<polygon fill-rule="evenodd" clip-rule="evenodd" fill="#FFFFFF" points="14.01,11.951 14.424,6.522 15.872,6.522 16.286,12.053 "/>
<path fill-rule="evenodd" clip-rule="evenodd" fill="#FFFFFF" d="M14.343,3.547c-0.077-0.413-0.512-0.75-0.995-0.75
	c-0.104,0-0.181,0.027-0.282,0.052c-0.23-0.283-0.588-0.439-0.996-0.439c-0.612,0-1.15,0.388-1.251,0.906h-0.026
	c-0.996,0-1.813,0.49-1.813,1.087c0,0.621,0.817,1.11,1.813,1.11c0.46,0,0.843-0.104,1.15-0.257
	c0.178,0.153,0.432,0.232,0.688,0.232c0.333,0,0.613-0.13,0.793-0.312c0.179,0.08,0.382,0.132,0.611,0.132
	c0.64,0,1.151-0.414,1.151-0.905C15.186,4.015,14.827,3.651,14.343,3.547"/>
<path fill="#B3C48D" d="M17.793,19.078H4.782c-0.156,0-0.284-0.129-0.284-0.285v-6.83c0-0.159,0.128-0.286,0.284-0.286h13.011
	c0.157,0,0.286,0.127,0.286,0.286v6.83C18.079,18.949,17.95,19.078,17.793,19.078 M5.068,18.509h12.438v-6.263H5.068V18.509z"/>
</svg>
