<?xml version="1.0" encoding="utf-8"?>
<!-- Generator: Adobe Illustrator 18.1.1, SVG Export Plug-In . SVG Version: 6.00 Build 0)  -->
<svg version="1.1" id="Layer" xmlns="http://www.w3.org/2000/svg" xmlns:xlink="http://www.w3.org/1999/xlink" x="0px" y="0px"
	 viewBox="0 0 16 6" enable-background="new 0 0 16 6" xml:space="preserve">
<path fill-rule="evenodd" clip-rule="evenodd" fill="#848484" d="M16,2.1H6.2C5.8,0.9,4.6,0,3.2,0C1.4,0,0,1.3,0,3
	c0,1.6,1.4,3,3.2,3c1.4,0,2.6-0.9,3-2.1h3.8L10,6h2l0-2.2h1.1L13.2,6h1.7l0-2.2h1V2.1z M3.2,4.4C2.4,4.4,1.8,3.7,1.8,3
	s0.6-1.4,1.3-1.4c0.7,0,1.3,0.6,1.3,1.4C4.5,3.7,3.9,4.4,3.2,4.4z"/>
</svg>
