<?xml version="1.0" encoding="utf-8"?>
<!-- Generator: Adobe Illustrator 18.1.1, SVG Export Plug-In . SVG Version: 6.00 Build 0)  -->
<svg version="1.1" id="Layer_1" xmlns="http://www.w3.org/2000/svg" xmlns:xlink="http://www.w3.org/1999/xlink" x="0px" y="0px"
	 viewBox="0 0 43.7 44.3" enable-background="new 0 0 43.7 44.3" xml:space="preserve">
<path fill-rule="evenodd" clip-rule="evenodd" fill="#3A8AC4" d="M0,22.1c0,12.2,9.8,22.1,21.8,22.1c12,0,21.8-9.9,21.8-22.1
	C43.7,9.9,33.9,0,21.8,0C9.8,0,0,9.9,0,22.1 M2.1,22.1c0-11.1,8.8-20,19.8-20c10.9,0,19.8,9,19.8,20c0,11.1-8.8,20-19.8,20
	C10.9,42.2,2.1,33.2,2.1,22.1"/>
<path fill="#3A8AC4" d="M28.5,20.8c-0.5-0.5-4-6.3-4.2-6.8c-0.2-0.5,0.1-3.2,0.1-4c0-0.8-2.5-2-3.2-0.5c-0.4,0.9-1.7,4-1.6,4.9
	c0.1,0.9,0.5,3.1,0.8,4.7h-7.5c-1.1,0-1.8,0.7-1.9,1.7c-0.1,0.8,0.3,1.8,1.2,2.3c-0.4,0.4-0.7,0.9-0.6,1.5c0.1,0.8,0.5,1.5,1.1,1.9
	c-0.4,0.4-0.6,0.9-0.6,1.5c0.1,0.8,0.5,1.5,1.2,1.9c-0.3,0.3-0.5,0.8-0.5,1.4c0.1,1.1,1,2.2,2.7,2.2h11.8c0.6,0,1.1-0.3,1.6-0.6
	c0.2-0.1,0.5-0.3,0.6-0.3h1.9V22.2C31.4,22.2,28.9,21.3,28.5,20.8z"/>
</svg>
