<?xml version="1.0" encoding="utf-8"?>
<!-- Generator: Adobe Illustrator 18.1.1, SVG Export Plug-In . SVG Version: 6.00 Build 0)  -->
<svg version="1.1" id="Layer_1" xmlns="http://www.w3.org/2000/svg" xmlns:xlink="http://www.w3.org/1999/xlink" x="0px" y="0px"
	 viewBox="0 0 58.8 38.6" enable-background="new 0 0 58.8 38.6" xml:space="preserve">
<g>
	<path fill="#44658e" d="M57.3,1.8c-0.3-0.4-0.9-0.6-1.3-0.3l-0.2,0.1C55.3,1.8,55,2.4,55,2.9l0,0.9c0,0.3-0.1,0.6-0.3,0.8L54,5.5
		c-0.2,0.2-0.5,0.4-0.7,0.4l-0.7,0C52,6,51.4,6.2,51,6.7l-0.5,0.5c-0.4,0.4-0.6,1-0.6,1.6c0,0.3-0.2,0.5-0.4,0.6l-1,0.2
		c-0.5,0.1-0.9,0.6-0.9,1.1l0,0.1c0,0.3-0.1,0.6-0.4,0.8l-1.7,1.3c-0.2,0.2-0.5,0.3-0.8,0.3l-0.5,0c-0.2,0-0.3-0.1-0.4-0.3
		c0-0.2,0-0.4,0.1-0.5l0,0c0.3-0.3,0.4-0.8,0.3-1.2l-0.1-0.4c-0.1-0.5-0.5-0.9-0.9-1.1l0,0C43,9.4,42.9,9.2,43,9
		c0.2-0.4,0.1-0.9-0.3-1.1l-0.4-0.3c-0.1-0.1-0.1-0.2-0.1-0.3c0.1-0.2,0-0.5-0.1-0.7L42,6.4c-0.2-0.3-0.6-0.5-0.9-0.5l-1.8,0.2
		c-0.3,0-0.6,0-0.8-0.2l-0.2-0.1c-0.1-0.1-0.3-0.2-0.4-0.4c-0.1-0.3-0.5-0.3-0.7-0.1l-0.7,0.7C36.3,6,36,6,35.8,5.9l-0.3-0.2
		c-0.2-0.1-0.2-0.4,0-0.5l0.7-0.4c0.1-0.1,0.2-0.3,0.2-0.4c0-0.2-0.1-0.3-0.3-0.3L32.6,4c-0.3,0-0.5-0.2-0.7-0.4l-0.2-0.2
		c-0.3-0.5-0.9-0.7-1.4-0.7l-9.7,1c-0.3,0-0.6,0-0.9-0.1l-4.7-1.7L5.7,0c-0.5-0.1-0.9,0.3-1,0.8l0,0.2c0,0.2-0.2,0.4-0.4,0.4
		C4.1,1.3,4,1.2,3.9,1C3.9,0.6,3.5,0.3,3.2,0.4L3,0.4c-0.5,0.1-0.8,0.5-0.8,1l0.1,2.8c0,0.3,0,0.6-0.2,0.9l-1,2.2
		C0.9,7.9,0.8,8.5,0.7,9.2l-0.1,1.6c0,0.2-0.1,0.3-0.2,0.4C0.2,11.4,0.1,11.7,0,12l0,1.6c0,0.6,0.1,1.2,0.4,1.7
		c0.2,0.3,0.3,0.6,0.3,0.9l0.3,1.7c0,0.1,0.5,1.9,0.5,2l0.6,1.7l50.7-0.1l0.1-2.2c0,0,0-0.5-0.1-0.6c-0.1-0.2-0.4-0.4-0.4-0.4
		c0-0.1,0.1-0.2,0.1-0.2l0.4-0.5c0.3-0.4,0.4-0.9,0.3-1.4c0-0.3,0-0.5,0.1-0.7l0.4-0.9c0.2-0.4,0.2-0.8,0.1-1.3c0-0.2,0-0.4,0.2-0.5
		l2-1.8c0.4-0.4,0.6-1,0.5-1.6l-0.2-1.2c0-0.3,0-0.6,0.2-0.8l1.9-2c0.4-0.4,0.4-1,0.1-1.5L57.3,1.8z"/>
	<path fill="#44658e" d="M5,25.4c0.1,0.5,0.6,0.9,1.1,0.9l1.6,0c0.3,0,0.6,0.1,0.8,0.3l3.1,2.2c0.5,0.3,1.1,0.6,1.6,0.6l2.1,0.2
		c0.2,0,0.4-0.1,0.6-0.3c0.1-0.1,0.2-0.2,0.3-0.2l1.3,0.1c0.3,0,0.5,0.2,0.7,0.4l0.6,1c0.3,0.5,0.7,1,1.1,1.5l1.2,1.2
		c0.4,0.4,0.9,0.4,1.3,0l0.2-0.2c0.2-0.2,0.5-0.3,0.8-0.3l0.3,0c0.3,0,0.5,0.2,0.6,0.5l1.4,3.1c0.3,0.6,0.7,1,1.1,1.4l0.7,0.5
		c0.3,0.2,0.7,0.3,1.1,0.3c0.3,0,0.6-0.4,0.5-0.7L29,36.6c0-0.3,0-0.6,0.2-0.9l0.1-0.3c0.1-0.3,0.4-0.5,0.6-0.6l0.1-0.1
		c0.6-0.2,1.1-0.5,1.6-0.9l0.7-0.6c0.2-0.2,0.5-0.3,0.8-0.3l1.9-0.1c0.3,0,0.6,0.1,0.8,0.2l0.1,0.1c0.5,0.3,1,0.4,1.6,0.2l0.7-0.3
		c0.3-0.1,0.6-0.5,0.6-0.9c0-0.2,0.1-0.3,0.3-0.3l5.4-0.3c0.3,0,0.6,0.1,0.8,0.2l1.1,0.7c0.2,0.2,0.4,0.4,0.4,0.7l0,0.3
		c0,0.6,0.2,1.2,0.6,1.7l1.9,2.2c0.3,0.3,0.7,0.5,1.1,0.5c0.4,0,0.7-0.4,0.7-0.8l0-1.1c0-0.6-0.2-1.2-0.5-1.8l-2-3.5
		c-0.2-0.3-0.2-0.6-0.2-0.9l0.1-1.5c0-0.3,0.1-0.6,0.3-0.9c0.8-1.1,4.1-5,4.2-5.8c0.3-3.5-50.8,0-50.8,0c0.2,0.5,0.5,1,0.9,1.4
		c0.7,0.8,1.9,2,1.8,1.9C4.9,24.8,4.9,25.1,5,25.4z"/>
</g>
</svg>
