<?xml version="1.0" encoding="utf-8"?>
<!-- Generator: Adobe Illustrator 15.0.0, SVG Export Plug-In . SVG Version: 6.00 Build 0)  -->
<!DOCTYPE svg PUBLIC "-//W3C//DTD SVG 1.1//EN" "http://www.w3.org/Graphics/SVG/1.1/DTD/svg11.dtd">
<svg version="1.1" id="Layer_1" xmlns="http://www.w3.org/2000/svg" xmlns:xlink="http://www.w3.org/1999/xlink" x="0px" y="0px"
	 width="20px" height="19px" viewBox="0 0 20 19" enable-background="new 0 0 20 19" xml:space="preserve">
<path fill-rule="evenodd" clip-rule="evenodd" fill="#3A8AC4" d="M4,7H3V6h1V7z M18.75,4H1.25C0.56,4,0,4.58,0,5.29v6.42
	C0,12.42,0.56,13,1.25,13h1.74V8.99H17V13h1.75c0.69,0,1.25-0.58,1.25-1.29V5.29C20,4.58,19.44,4,18.75,4z M15.11,15.06h-3.03v3.01
	H4.89V10H4v9h8.4l3.6-3.75V10h-0.89V15.06z M4.89,1h10.22v2H16V0H4v3h0.89V1z M13,12H6v0.93h7V12z M6,14.93h5V14H6V14.93z"/>
</svg>
