<?xml version="1.0" encoding="utf-8"?>
<!-- Generator: Adobe Illustrator 18.1.1, SVG Export Plug-In . SVG Version: 6.00 Build 0)  -->
<svg version="1.1" id="Layer_1" xmlns="http://www.w3.org/2000/svg" xmlns:xlink="http://www.w3.org/1999/xlink" x="0px" y="0px"
	 viewBox="0 0 26.3 15.4" enable-background="new 0 0 26.3 15.4" xml:space="preserve">
<path fill-rule="evenodd" clip-rule="evenodd" fill="#1E7CAF" d="M14.3,14h12V0h-19v5.9l0.7,0V1.5l8.8,8.4L19.6,7l5.6,6.3H14.2
	L14.3,14z M24.9,0.7l-8.2,8l-8.2-8H24.9z M25.6,12.4l-5.4-6l5.4-5.1V12.4z M20.2,6.4L19.6,7l0,0L20.2,6.4L20.2,6.4z M13.4,6.7
	L13.4,6.7 M5.4,6.6c2.9,0,7.6,1.2,7.6,8.8c-1.4-3-3.3-4.9-7.6-3.4l0,3.4L0,9.4l5.4-6.1L5.4,6.6z"/>
</svg>
