<?xml version="1.0" encoding="utf-8"?>
<!-- Generator: Adobe Illustrator 18.1.0, SVG Export Plug-In . SVG Version: 6.00 Build 0)  -->
<svg version="1.1" id="Layer_1" xmlns="http://www.w3.org/2000/svg" xmlns:xlink="http://www.w3.org/1999/xlink" x="0px" y="0px"
	 viewBox="0 0 64 64.9" enable-background="new 0 0 64 64.9" xml:space="preserve">
<path fill="#1e7caf" d="M33.1,11.7l0,10.1c0,0-18.5,1.8-18.5,24.7C23.5,33,33.1,36.4,33.1,36.4l0,10.1l20-17.4L33.1,11.7z"/>
<path fill-rule="evenodd" clip-rule="evenodd" fill="#1e7caf" d="M0,32.4c0,17.9,14.3,32.4,32,32.4c17.7,0,32-14.5,32-32.4
	C64,14.5,49.7,0,32,0C14.3,0,0,14.5,0,32.4 M3,32.4C3,16.2,16,3.1,32,3.1c16,0,29,13.1,29,29.4c0,16.2-13,29.4-29,29.4
	C16,61.8,3,48.7,3,32.4"/>
</svg>
