<?xml version="1.0" encoding="utf-8"?>
<!-- Generator: Adobe Illustrator 15.0.0, SVG Export Plug-In . SVG Version: 6.00 Build 0)  -->
<!DOCTYPE svg PUBLIC "-//W3C//DTD SVG 1.1//EN" "http://www.w3.org/Graphics/SVG/1.1/DTD/svg11.dtd">
<svg version="1.1" id="Layer_1" xmlns="http://www.w3.org/2000/svg" xmlns:xlink="http://www.w3.org/1999/xlink" x="0px" y="0px"
	 width="20.43px" height="16.67px" viewBox="0 0 20.43 16.67" enable-background="new 0 0 20.43 16.67" xml:space="preserve">
<path fill="#3A89C3" d="M18.34,4.15l0.01,0.54c0,5.57-4.22,11.98-11.93,11.98c-2.36,0-4.57-0.698-6.42-1.89
	c0.33,0.039,0.66,0.06,1,0.06c1.96,0,3.77-0.68,5.2-1.81C4.37,13,2.82,11.78,2.29,10.11c0.26,0.05,0.52,0.078,0.79,0.078
	c0.38,0,0.75-0.049,1.1-0.148C2.26,9.649,0.82,7.95,0.82,5.91V5.86c0.57,0.32,1.21,0.51,1.9,0.53C1.59,5.63,0.85,4.34,0.85,2.88
	c0-0.77,0.21-1.49,0.57-2.11c2.07,2.55,5.16,4.22,8.64,4.4C9.99,4.86,9.95,4.54,9.95,4.21C9.95,1.88,11.83,0,14.14,0
	c1.21,0,2.3,0.51,3.062,1.33c0.96-0.19,1.85-0.54,2.659-1.02c-0.311,0.98-0.971,1.8-1.841,2.32c0.852-0.1,1.66-0.32,2.41-0.66
	C19.87,2.82,19.16,3.56,18.34,4.15z"/>
</svg>
