<?xml version="1.0" encoding="utf-8"?>
<!-- Generator: Adobe Illustrator 18.1.0, SVG Export Plug-In . SVG Version: 6.00 Build 0)  -->
<svg version="1.1" id="Layer_1" xmlns="http://www.w3.org/2000/svg" xmlns:xlink="http://www.w3.org/1999/xlink" x="0px" y="0px"
	 viewBox="0 0 61 61.8" enable-background="new 0 0 61 61.8" xml:space="preserve">
<path fill-rule="evenodd" clip-rule="evenodd" fill="#1e7caf" d="M28.6,32.2H15.6v-4.2h12.9V14.6h4.6v13.3h12.9v4.2H33.2v13.3h-4.6
	V32.2z M0,30.9C0,48,13.7,61.8,30.5,61.8C47.3,61.8,61,48,61,30.9C61,13.8,47.3,0,30.5,0C13.7,0,0,13.8,0,30.9 M2.9,30.9
	c0-15.5,12.4-28,27.6-28c15.2,0,27.6,12.5,27.6,28c0,15.5-12.4,28-27.6,28C15.2,58.9,2.9,46.4,2.9,30.9"/>
</svg>
