<?xml version="1.0" encoding="utf-8"?>
<!-- Generator: Adobe Illustrator 18.1.1, SVG Export Plug-In . SVG Version: 6.00 Build 0)  -->
<svg version="1.1" id="Layer_1" xmlns="http://www.w3.org/2000/svg" xmlns:xlink="http://www.w3.org/1999/xlink" x="0px" y="0px"
	 viewBox="0 0 47.9 47.9" enable-background="new 0 0 47.9 47.9" xml:space="preserve">
<path fill="#ffffff" d="M25,2.1c-2.7,0-5.3,0.5-7.8,1.4L22,8.1c1-0.2,1.9-0.3,3-0.3c9.5,0,17.2,7.7,17.2,17.2S34.5,42.2,25,42.2S7.8,34.5,7.8,25
	c0-1,0.1-2,0.3-3l-4.6-4.8c-0.9,2.4-1.4,5-1.4,7.8c0,12.6,10.3,22.9,22.9,22.9c12.6,0,22.9-10.3,22.9-22.9
	C47.9,12.3,37.6,2.1,25,2.1z M24.5,29.9c-1.1,0-2.1-0.3-3-0.9c-0.2-0.1-0.4-0.3-0.6-0.4l-4.2-4.1h-2.1c0,0.2-0.1,0.3-0.1,0.5
	c0,5.8,4.7,10.4,10.4,10.4S35.4,30.7,35.4,25S30.7,14.6,25,14.6c-0.2,0-0.3,0-0.5,0.1v2.1l4.1,4.2c0.2,0.2,0.3,0.4,0.5,0.6
	c0.6,0.9,0.9,1.9,0.9,3C29.9,27.5,27.5,29.9,24.5,29.9z M18.2,20.8l5.2,5.2c0.3,0.2,0.6,0.3,1,0.3c1,0,1.8-0.8,1.8-1.8
	c0-0.4-0.1-0.7-0.3-1l-5.2-5.2V12L8.3,0v8.3H0l12,12.5H18.2z"/>
</svg>
