<?xml version="1.0" encoding="utf-8"?>
<!-- Generator: Adobe Illustrator 18.1.1, SVG Export Plug-In . SVG Version: 6.00 Build 0)  -->
<svg version="1.1" id="Layer_1" xmlns="http://www.w3.org/2000/svg" xmlns:xlink="http://www.w3.org/1999/xlink" x="0px" y="0px"
	 viewBox="0 0 53.3 58.9" enable-background="new 0 0 53.3 58.9" xml:space="preserve">
<g>
	<path fill="#44658e" d="M7.3,44.3h-2c-1,0-1.7,0.7-1.7,1.6v9.5c-0.9,0.1-1.7,0.5-2.3,1.2l-1,1.1c-0.4,0.5,0,1.2,0.7,1.2h51.6
		c0.7,0,1.1-0.7,0.7-1.2l-1-1.1c-0.5-0.6-1.3-1-2.1-1.1v-9.5c0-0.9-0.8-1.6-1.8-1.6h-1.5c0,0.1,0,0.1,0,0.2v6.3
		c0,0.8-0.8,1.5-1.7,1.5c-0.9,0-1.7-0.7-1.7-1.5v-6.3c0-0.1,0-0.1,0-0.2h-5.7c0,0.1,0,0.1,0,0.2v6.3c0,0.8-0.8,1.5-1.7,1.5
		c-0.9,0-1.7-0.7-1.7-1.5v-6.3c0-0.1,0-0.1,0-0.2h-5.7c0,0.1,0,0.1,0,0.2v6.3c0,0.8-0.8,1.5-1.7,1.5c-0.9,0-1.7-0.7-1.7-1.5v-6.3
		c0-0.1,0-0.1,0-0.2h-5.7c0,0.1,0,0.1,0,0.2v6.3c0,0.8-0.8,1.5-1.7,1.5c-0.9,0-1.7-0.7-1.7-1.5v-6.3c0-0.1,0-0.1,0-0.2h-5.7
		c0,0.1,0,0.1,0,0.2v6.3c0,0.8-0.8,1.5-1.7,1.5c-0.9,0-1.7-0.7-1.7-1.5v-6.3C7.3,44.4,7.3,44.4,7.3,44.3z"/>
	<path fill="#44658e" d="M7.6,40.7c0,0.7,0.6,1.2,1.4,1.2h35.3c0.8,0,1.4-0.5,1.4-1.2c0-0.7-0.6-1.2-1.4-1.2h-2.6V33
		c0-0.5-0.4-0.9-1-0.9h-1.2c0,0.1,0,0.1,0,0.2v4c0,0.5-0.5,1-1.1,1c-0.6,0-1.1-0.4-1.1-1v-4c0-0.1,0-0.1,0-0.2h-3.7
		c0,0.1,0,0.1,0,0.2v4c0,0.5-0.5,1-1.1,1c-0.6,0-1.1-0.4-1.1-1v-4c0-0.1,0-0.1,0-0.2h-3.7c0,0.1,0,0.1,0,0.2v4c0,0.5-0.5,1-1.1,1
		c-0.6,0-1.1-0.4-1.1-1v-4c0-0.1,0-0.1,0-0.2h-3.7c0,0.1,0,0.1,0,0.2v4c0,0.5-0.5,1-1.1,1c-0.6,0-1.1-0.4-1.1-1v-4
		c0-0.1,0-0.1,0-0.2h-3.7c0,0.1,0,0.1,0,0.2v4c0,0.5-0.5,1-1.1,1c-0.6,0-1.1-0.4-1.1-1v-4c0-0.1,0-0.1,0-0.2h-1.4
		c-0.5,0-1,0.4-1,0.9v6.4H9C8.2,39.4,7.6,40,7.6,40.7z"/>
	<path fill="#44658e" d="M23.5,16.4v1c-5.6,1.2-9.8,5.4-10.3,10.5h-0.6c-0.7,0-1.4,0.5-1.4,1.2c0,0.7,0.6,1.2,1.4,1.2h28
		c0.7,0,1.4-0.5,1.4-1.2c0-0.7-0.6-1.2-1.4-1.2H40c-0.5-5.2-4.8-9.4-10.3-10.5v-1h-0.8v-6h0.7V9l-1.2-1.1V6.5h-0.8V2.3
		c0.4-0.1,0.6-0.4,0.6-0.8V0.9c0-0.5-0.4-0.9-1-0.9h-1.5c-0.5,0-1,0.4-1,0.9v0.7c0,0.4,0.2,0.7,0.6,0.8v4.2h-0.8v1.3L23.4,9v1.3h0.7
		v6H23.5z M25.6,14.8v-3.1c0-0.5,0.4-0.9,1-0.9h0c0.5,0,1,0.4,1,0.9v3.1c0,0.5-0.4,0.9-1,0.9h0C26,15.7,25.6,15.3,25.6,14.8z"/>
</g>
</svg>
