<?xml version="1.0" encoding="utf-8"?>
<!-- Generator: Adobe Illustrator 15.0.0, SVG Export Plug-In . SVG Version: 6.00 Build 0)  -->
<!DOCTYPE svg PUBLIC "-//W3C//DTD SVG 1.1//EN" "http://www.w3.org/Graphics/SVG/1.1/DTD/svg11.dtd">
<svg version="1.1" id="Layer_1" xmlns="http://www.w3.org/2000/svg" xmlns:xlink="http://www.w3.org/1999/xlink" x="0px" y="0px"
	 width="21.859px" height="20px" viewBox="0 0 21.859 20" enable-background="new 0 0 21.859 20" xml:space="preserve">
<path fill="#A7B2BA" d="M18.86,18.5c0,0.83-0.67,1.5-1.5,1.5s-1.5-0.67-1.5-1.5s0.67-1.5,1.5-1.5S18.86,17.67,18.86,18.5z
	 M10.86,18.5c0,0.83-0.67,1.5-1.5,1.5s-1.5-0.67-1.5-1.5S8.53,17,9.36,17S10.86,17.67,10.86,18.5z M7.43,9.99L4.82,3H20.71
	l-3.13,6.99H7.43z M21.86,2.07H4.28L3.41,0.04L-0.04,0L0,0.81h2.63l2.56,6.54l2.96,7.63L18.82,15l-0.04-0.891L8.82,14.04L7.96,10.99
	h10.56L21.86,2.07z"/>
</svg>
