<?xml version="1.0" encoding="utf-8"?>
<!-- Generator: Adobe Illustrator 15.0.0, SVG Export Plug-In . SVG Version: 6.00 Build 0)  -->
<!DOCTYPE svg PUBLIC "-//W3C//DTD SVG 1.1//EN" "http://www.w3.org/Graphics/SVG/1.1/DTD/svg11.dtd">
<svg version="1.1" id="Layer_1" xmlns="http://www.w3.org/2000/svg" xmlns:xlink="http://www.w3.org/1999/xlink" x="0px" y="0px"
	 width="21.86px" height="20px" viewBox="0 0 21.86 20" enable-background="new 0 0 21.86 20" xml:space="preserve">
<path fill-rule="evenodd" clip-rule="evenodd" fill="#3179AF" d="M18.86,18.5c0,0.83-0.67,1.5-1.5,1.5s-1.5-0.67-1.5-1.5
	s0.67-1.5,1.5-1.5S18.86,17.67,18.86,18.5z M10.86,18.5c0,0.83-0.67,1.5-1.5,1.5c-0.82,0-1.49-0.67-1.49-1.5S8.54,17,9.36,17
	C10.19,17,10.86,17.67,10.86,18.5z M21.86,2.07H4.29L3.42,0.04L-0.03,0L0,0.81h2.64L5.2,7.35l2.96,7.63L18.82,15l-0.04-0.89
	l-9.96-0.07l-0.86-3.05h10.56L21.86,2.07z"/>
</svg>
