<?xml version="1.0" encoding="utf-8"?>
<!-- Generator: Adobe Illustrator 18.1.0, SVG Export Plug-In . SVG Version: 6.00 Build 0)  -->
<svg version="1.1" id="Layer_1" xmlns="http://www.w3.org/2000/svg" xmlns:xlink="http://www.w3.org/1999/xlink" x="0px" y="0px"
	 viewBox="0 0 72.3 63.2" enable-background="new 0 0 72.3 63.2" xml:space="preserve">
<path fill-rule="evenodd" clip-rule="evenodd" fill="#1e7caf" d="M72.3,6L14.5,6l-2.8-5.9L0.3,0L0,2.6l9.2,0l8.5,21l8.8,24.5l33.7,0
	L60,45.2l-31.3,0.1L24.8,36h36.8L72.3,6z M23.9,33L15,8.4l53.4,0L59.6,33H23.9z M36.2,58.6c0,2.5-2,4.5-4.5,4.5
	c-2.5,0-4.5-2-4.5-4.5c0-2.5,2-4.5,4.5-4.5C34.1,54.1,36.2,56.1,36.2,58.6 M60.3,58.6c0,2.5-2,4.5-4.5,4.5c-2.5,0-4.5-2-4.5-4.5
	c0-2.5,2-4.5,4.5-4.5C58.3,54.1,60.3,56.1,60.3,58.6"/>
</svg>
