<?xml version="1.0" encoding="utf-8"?>
<!-- Generator: Adobe Illustrator 15.0.0, SVG Export Plug-In . SVG Version: 6.00 Build 0)  -->
<!DOCTYPE svg PUBLIC "-//W3C//DTD SVG 1.1//EN" "http://www.w3.org/Graphics/SVG/1.1/DTD/svg11.dtd">
<svg version="1.1" id="Layer_1" xmlns="http://www.w3.org/2000/svg" xmlns:xlink="http://www.w3.org/1999/xlink" x="0px" y="0px"
	 width="30.931px" height="35.131px" viewBox="0 -15.131 30.931 35.131" enable-background="new 0 -15.131 30.931 35.131"
	 xml:space="preserve">
<g>
	<path fill="#2F79AF" d="M18.875,18.52c0,0.804-0.702,1.508-1.507,1.508c-0.803,0-1.508-0.704-1.508-1.508s0.705-1.507,1.508-1.507
		C18.173,17.013,18.875,17.716,18.875,18.52z M10.839,18.52c0,0.804-0.702,1.508-1.507,1.508c-0.803,0-1.506-0.704-1.506-1.508
		s0.704-1.507,1.506-1.507C10.137,17.013,10.839,17.716,10.839,18.52z M21.887,2.045H4.21L3.306,0.036H0V0.84h2.603l2.612,6.53
		l3.014,7.632h10.748v-0.902L8.93,14l-0.903-3.014h10.647L21.887,2.045z"/>
	<path fill="#E38B37" d="M10.839-5.086c0,5.525,4.519,10.045,10.045,10.045c5.523,0,10.046-4.52,10.046-10.045
		c0-5.524-4.522-10.045-10.046-10.045C15.358-15.131,10.839-10.611,10.839-5.086z M20.885-3.58l-2.812,2.813l-1.407-1.407
		l2.812-2.813l-2.812-2.812l1.407-1.406l2.812,2.812l2.812-2.812l1.407,1.406l-2.812,2.812l2.812,2.913l-1.407,1.407L20.885-3.58z"
		/>
</g>
</svg>
