<?xml version="1.0" encoding="utf-8"?>
<!-- Generator: Adobe Illustrator 18.1.0, SVG Export Plug-In . SVG Version: 6.00 Build 0)  -->
<svg version="1.1" id="Layer_1" xmlns="http://www.w3.org/2000/svg" xmlns:xlink="http://www.w3.org/1999/xlink" x="0px" y="0px"
	 viewBox="0 0 77.5 78.6" enable-background="new 0 0 77.5 78.6" xml:space="preserve">
<g>
	<path fill-rule="evenodd" clip-rule="evenodd" fill="#FFFFFF" d="M0,39.3C0,61,17.4,78.6,38.8,78.6c21.4,0,38.8-17.6,38.8-39.3
		C77.5,17.6,60.2,0,38.8,0C17.4,0,0,17.6,0,39.3 M3.7,39.3c0-19.6,15.7-35.6,35.1-35.6c19.4,0,35.1,15.9,35.1,35.6
		c0,19.6-15.7,35.6-35.1,35.6C19.4,74.9,3.7,58.9,3.7,39.3"/>
	<ellipse opacity="0.6" fill-rule="evenodd" clip-rule="evenodd" cx="38.6" cy="39.3" rx="35.5" ry="35.8"/>
	<polygon fill-rule="evenodd" clip-rule="evenodd" fill="#FFFFFF" points="33,21.4 50.8,39.3 33,57.2 	"/>
</g>
</svg>
