<?xml version="1.0" encoding="utf-8"?>
<!-- Generator: Adobe Illustrator 18.1.0, SVG Export Plug-In . SVG Version: 6.00 Build 0)  -->
<svg version="1.1" id="Layer_1" xmlns="http://www.w3.org/2000/svg" xmlns:xlink="http://www.w3.org/1999/xlink" x="0px" y="0px"
	 viewBox="0 0 59.4 59.4" enable-background="new 0 0 59.4 59.4" xml:space="preserve">
<path fill-rule="evenodd" clip-rule="evenodd" fill="#3A89C3" d="M55.4,29.7c0,14.2-11.5,25.7-25.7,25.7C15.5,55.4,4,43.9,4,29.7
	C4,15.5,15.5,4,29.7,4C43.9,4,55.4,15.5,55.4,29.7z M59.4,29.7C59.4,13.3,46.1,0,29.7,0C13.3,0,0,13.3,0,29.7
	c0,16.4,13.3,29.7,29.7,29.7C46.1,59.4,59.4,46.1,59.4,29.7z M45.5,26.3l-2.6-2.5L29.7,36.5L16.5,23.7l-2.6,2.5l15.8,15.3L45.5,26.3
	z"/>
</svg>
