<?xml version="1.0" encoding="utf-8"?>
<!-- Generator: Adobe Illustrator 16.0.4, SVG Export Plug-In . SVG Version: 6.00 Build 0)  -->
<!DOCTYPE svg PUBLIC "-//W3C//DTD SVG 1.1//EN" "http://www.w3.org/Graphics/SVG/1.1/DTD/svg11.dtd">
<svg version="1.1" id="Layer_1" xmlns="http://www.w3.org/2000/svg" xmlns:xlink="http://www.w3.org/1999/xlink" x="0px" y="0px"
	 width="22.577px" height="22.575px" viewBox="0 0 22.577 22.575" enable-background="new 0 0 22.577 22.575" xml:space="preserve">
<path d="M20.788,22.575h-19C0.802,22.575,0,21.773,0,20.788v-19C0,0.802,0.802,0,1.788,0h19c0.986,0,1.789,0.802,1.789,1.788v19
	C22.577,21.773,21.774,22.575,20.788,22.575"/>
<path fill-rule="evenodd" clip-rule="evenodd" fill="#B3C48D" d="M8.5,18.274c0-0.65,0.528-1.18,1.177-1.18
	c0.651,0,1.179,0.529,1.179,1.18c0,0.646-0.528,1.174-1.179,1.174C9.028,19.448,8.5,18.919,8.5,18.274"/>
<path fill-rule="evenodd" clip-rule="evenodd" fill="#B3C48D" d="M14.403,18.274c0-0.65,0.525-1.18,1.178-1.18
	c0.65,0,1.176,0.529,1.176,1.18c0,0.646-0.525,1.174-1.176,1.174C14.928,19.448,14.403,18.919,14.403,18.274"/>
<path fill="#FFFFFF" d="M19.448,7.17c-0.046-0.056-0.113-0.09-0.187-0.09H5.92c-0.075,0-0.147,0.035-0.192,0.097
	S5.67,7.317,5.692,7.389l2.135,7.063c0.03,0.101,0.123,0.169,0.228,0.169h9.604c0.111,0,0.209-0.076,0.233-0.186l1.603-7.062
	C19.51,7.303,19.493,7.228,19.448,7.17 M16.481,10.615l0.11-1.289h1.971l-0.293,1.289H16.481z M18.161,11.091l-0.291,1.29h-1.537
	l0.108-1.29H18.161z M7.31,11.091h1.671l0.146,1.29H7.699L7.31,11.091z M8.927,10.615H7.165l-0.39-1.289H8.78L8.927,10.615z
	 M9.063,7.559h2.206v1.288H9.207L9.063,7.559z M14.185,10.615V9.326h1.925l-0.107,1.289H14.185z M15.961,11.091l-0.108,1.29h-1.668
	v-1.29H15.961z M11.746,9.326h1.961v1.29h-1.961V9.326z M13.708,12.381h-1.961v-1.29h1.961V12.381z M11.746,7.559h1.961v1.288
	h-1.961V7.559z M11.269,9.326v1.289H9.408L9.261,9.326H11.269z M11.269,11.091v1.29H9.607l-0.145-1.29H11.269z M9.661,12.861h1.608
	v1.283H9.807L9.661,12.861z M11.746,12.861h1.961v1.283h-1.961V12.861z M14.185,12.861h1.627l-0.108,1.283h-1.519V12.861z
	 M14.185,8.847V7.559h2.076l-0.109,1.288H14.185z M8.581,7.559l0.146,1.288H6.631L6.242,7.559H8.581z M7.844,12.861H9.18
	l0.146,1.283H8.232L7.844,12.861z M17.468,14.144h-1.285l0.108-1.283h1.469L17.468,14.144z M18.67,8.847h-2.039l0.107-1.288h2.225
	L18.67,8.847z"/>
<path fill="#B3C48D" d="M16.753,15.719H8.697L5.743,5.823c-0.053-0.18-0.215-0.294-0.392-0.303L2.877,5.262
	C2.643,5.235,2.432,5.409,2.406,5.644C2.381,5.881,2.552,6.092,2.79,6.115l2.213,0.231l2.941,9.849
	c0.035,0.116,0.118,0.203,0.219,0.255c0.079,0.081,0.188,0.129,0.307,0.129h8.284c0.237,0,0.431-0.193,0.431-0.429
	C17.184,15.911,16.991,15.719,16.753,15.719"/>
</svg>
