<?xml version="1.0" encoding="utf-8"?>
<!-- Generator: Adobe Illustrator 16.0.4, SVG Export Plug-In . SVG Version: 6.00 Build 0)  -->
<!DOCTYPE svg PUBLIC "-//W3C//DTD SVG 1.1//EN" "http://www.w3.org/Graphics/SVG/1.1/DTD/svg11.dtd">
<svg version="1.1" id="Layer_1" xmlns="http://www.w3.org/2000/svg" xmlns:xlink="http://www.w3.org/1999/xlink" x="0px" y="0px"
	 width="22.576px" height="22.574px" viewBox="0 0 22.576 22.574" enable-background="new 0 0 22.576 22.574" xml:space="preserve">
<path d="M20.789,22.574h-19C0.802,22.574,0,21.771,0,20.787v-19C0,0.802,0.802,0,1.788,0h19c0.986,0,1.787,0.802,1.787,1.787v19
	C22.576,21.771,21.775,22.574,20.789,22.574"/>
<path fill="#FFFFFF" d="M13.917,3.344H8.729L6.206,5.861l4.47,4.292h1.156l4.539-4.356L13.917,3.344z M10.193,9.129
	c-0.018,0.013-0.037,0.018-0.057,0.018c-0.026,0-0.052-0.009-0.07-0.031L7.615,6.419C7.595,6.39,7.475,6.212,7.541,6.043
	C7.579,5.945,7.667,5.88,7.805,5.847c0.039-0.029,0.133-0.083,0.261-0.083c0.168,0,0.418,0.095,0.654,0.547
	c0.312,0.75,1.485,2.673,1.497,2.693C10.244,9.045,10.233,9.099,10.193,9.129 M11.574,9.417c0,0-0.313,0.402-0.548,0
	c-0.237-0.402-1.412-2.57-1.412-2.57s-0.235-0.47,0.08-0.632h3.211c0,0,0.313,0.23,0,0.632C12.67,7.33,11.574,9.417,11.574,9.417
	 M12.509,9.116c-0.02,0.022-0.044,0.031-0.07,0.031c-0.019,0-0.039-0.005-0.057-0.018c-0.039-0.03-0.05-0.084-0.023-0.125
	c0.012-0.02,1.186-1.943,1.496-2.685c0.238-0.46,0.487-0.555,0.655-0.555c0.127,0,0.222,0.054,0.263,0.083
	c0.135,0.033,0.224,0.098,0.263,0.196c0.067,0.169-0.054,0.347-0.067,0.367L12.509,9.116z"/>
<path fill="#B3C48D" d="M13.79,8.273l-1.541,1.478c1.862,0.436,3.255,2.108,3.255,4.099c0,2.322-1.892,4.215-4.216,4.215
	c-2.323,0-4.214-1.893-4.214-4.215c0-1.972,1.365-3.629,3.199-4.084l-0.45-0.433c-0.753,0.252-1.572,0.719-2.272,1.576
	c-0.016,0.018-0.036,0.031-0.059,0.039c-0.01,0.003-0.099,0.031-0.214,0.031c-0.276,0-0.463-0.159-0.511-0.435
	c-0.005-0.026-0.001-0.052,0.01-0.075c0.009-0.017,0.632-1.224,2.28-1.871L8.74,8.294c-2.103,0.968-3.567,3.093-3.567,5.557
	c0,3.37,2.744,6.114,6.115,6.114c3.372,0,6.116-2.744,6.116-6.114C17.404,11.369,15.917,9.231,13.79,8.273 M11.403,19.515
	c-0.003,0.001-0.008,0.001-0.011,0.001c-0.024,0-0.048-0.009-0.068-0.021c-0.031-0.02-0.305-0.21-0.329-0.477
	c-0.009-0.091,0.011-0.23,0.15-0.364c0.023-0.024,0.054-0.036,0.085-0.036c0.122,0,3.001-0.032,4.283-2.85
	c0.011-0.022,0.029-0.041,0.05-0.056c0.014-0.008,0.136-0.074,0.298-0.074c0.156,0,0.378,0.062,0.533,0.374
	c0.013,0.026,0.017,0.057,0.01,0.086C16.395,16.127,15.576,19.119,11.403,19.515"/>
</svg>
