<?xml version="1.0" encoding="utf-8"?>
<!-- Generator: Adobe Illustrator 18.1.1, SVG Export Plug-In . SVG Version: 6.00 Build 0)  -->
<svg version="1.1" id="Layer_1" xmlns="http://www.w3.org/2000/svg" xmlns:xlink="http://www.w3.org/1999/xlink" x="0px" y="0px"
	 viewBox="0 0 47.8 49.9" enable-background="new 0 0 47.8 49.9" xml:space="preserve">
<path fill="#44658e" d="M21.8,12.5c3.1,0,5.2-4.4,5.2-7.3C27,2.3,24.7,0,21.8,0c-2.9,0-5.2,2.3-5.2,5.2C16.6,8.1,18.7,12.5,21.8,12.5z M47.8,17.7
	l-8.3-7.3v4.2H25.3l-2.5,7.3v-7.3h-2.1v7.3l-2.5-7.3h-7.9V8.3h4.2L7.3,0L0,8.3h4.2v9.3c0,1.7,1.4,3.1,3.1,3.1h7.3v29.1h6.2V33.2h2.1
	v16.6h6.2V20.8h10.4v4.2L47.8,17.7z"/>
</svg>
