<?xml version="1.0" encoding="utf-8"?>
<!-- Generator: Adobe Illustrator 18.1.0, SVG Export Plug-In . SVG Version: 6.00 Build 0)  -->
<svg version="1.1" id="Layer_1" xmlns="http://www.w3.org/2000/svg" xmlns:xlink="http://www.w3.org/1999/xlink" x="0px" y="0px"
	 viewBox="0 0 63 63" enable-background="new 0 0 63 63" xml:space="preserve">
<path fill="#C7C8CC" d="M28.5,22.6c-0.8-2.8-2.1-3.6-4.1-3.6c-0.2,0-0.4,0-0.6,0.1c-0.9,0.2-1.5,1-1.9,2c-0.4,1.1-0.4,2.2-0.1,3.5
	c0.6,2.3,2.2,4,3.9,4c0.2,0,0.4,0,0.6-0.1C28.2,28,29.3,25.2,28.5,22.6 M31.5,0C14.1,0,0,14.1,0,31.5C0,48.9,14.1,63,31.5,63
	C48.9,63,63,48.9,63,31.5C63,14.1,48.9,0,31.5,0 M29.7,45c-2,1-4.1,1.1-4.9,1.1c-0.2,0-0.2,0-0.3,0c0,0-0.1,0-0.2,0
	c-1.3,0-7.7-0.3-7.7-6.1c0-5.7,7-6.2,9.1-6.2l0.1,0c-1.2-1.6-1-3.3-1-3.3c-0.1,0-0.3,0-0.5,0c-0.8,0-2.4-0.1-3.7-1
	c-1.6-1-2.5-2.8-2.5-5.3c0-7,7.6-7.3,7.7-7.3h7.6v0.2c0,0.9-1.5,1-2.6,1.2c-0.4,0-1.1,0.1-1.3,0.2c1.9,1,2.2,2.7,2.2,5.1
	c0,2.7-1.1,4.2-2.2,5.2c-0.7,0.6-1.3,1.1-1.3,1.8c0,0.7,0.8,1.3,1.6,2.1c1.4,1.3,3.4,3,3.4,5.9C33.6,41.6,32.3,43.8,29.7,45
	 M46.4,31.5h-5v5h-3.2v-5h-5v-3.1h5v-5h3.2v5h5V31.5z M25.7,35.3c-0.2,0-0.3,0-0.5,0c-1.5,0.1-2.8,0.7-3.8,1.5c-1,0.9-1.5,2-1.4,3.1
	c0.1,2.3,2.7,3.7,5.7,3.5c3-0.2,5-1.9,4.8-4.3C30.4,36.9,28.5,35.3,25.7,35.3"/>
</svg>
