<?xml version="1.0" encoding="utf-8"?>
<!-- Generator: Adobe Illustrator 16.0.4, SVG Export Plug-In . SVG Version: 6.00 Build 0)  -->
<!DOCTYPE svg PUBLIC "-//W3C//DTD SVG 1.1//EN" "http://www.w3.org/Graphics/SVG/1.1/DTD/svg11.dtd">
<svg version="1.1" id="Layer_1" xmlns="http://www.w3.org/2000/svg" xmlns:xlink="http://www.w3.org/1999/xlink" x="0px" y="0px"
	 width="22.576px" height="22.576px" viewBox="0 0 22.576 22.576" enable-background="new 0 0 22.576 22.576" xml:space="preserve">
<path d="M20.788,22.576h-19C0.802,22.576,0,21.773,0,20.788v-19C0,0.802,0.802,0,1.788,0h19c0.985,0,1.788,0.802,1.788,1.788v19
	C22.576,21.773,21.773,22.576,20.788,22.576"/>
<path fill="#FFFFFF" d="M11.287,18.864c-4.081,0-7.4-3.4-7.4-7.576c0-4.175,3.319-7.574,7.4-7.574s7.401,3.399,7.401,7.574
	C18.688,15.464,15.368,18.864,11.287,18.864 M11.287,4.191c-3.817,0-6.925,3.184-6.925,7.097c0,3.915,3.107,7.098,6.925,7.098
	c3.82,0,6.927-3.183,6.927-7.098C18.214,7.375,15.107,4.191,11.287,4.191"/>
<polygon fill-rule="evenodd" clip-rule="evenodd" fill="#B3C48D" points="6.491,9.661 9.66,9.661 9.66,6.492 12.915,6.492 
	12.915,9.661 16.084,9.661 16.084,12.916 12.915,12.916 12.915,16.086 9.66,16.086 9.66,12.916 6.491,12.916 "/>
<polygon fill="#FFFFFF" points="11.578,16.086 10.996,16.086 10.996,11.578 6.491,11.578 6.491,10.998 10.996,10.998 10.996,6.492 
	11.578,6.492 11.578,10.998 16.083,10.998 16.083,11.578 11.578,11.578 "/>
</svg>
