<?xml version="1.0" encoding="utf-8"?>
<!-- Generator: Adobe Illustrator 16.0.4, SVG Export Plug-In . SVG Version: 6.00 Build 0)  -->
<!DOCTYPE svg PUBLIC "-//W3C//DTD SVG 1.1//EN" "http://www.w3.org/Graphics/SVG/1.1/DTD/svg11.dtd">
<svg version="1.1" id="Layer_1" xmlns="http://www.w3.org/2000/svg" xmlns:xlink="http://www.w3.org/1999/xlink" x="0px" y="0px"
	 width="22.575px" height="22.575px" viewBox="0 0 22.575 22.575" enable-background="new 0 0 22.575 22.575" xml:space="preserve">
<path d="M20.788,22.575h-19C0.802,22.575,0,21.773,0,20.788v-19C0,0.802,0.802,0,1.788,0h19c0.984,0,1.787,0.802,1.787,1.788v19
	C22.575,21.773,21.772,22.575,20.788,22.575"/>
<path fill="#FFFFFF" d="M14.591,19.689H7.985c-1.042,0-1.89-0.862-1.89-1.923V5.106c0-1.061,0.848-1.924,1.89-1.924h6.605
	c1.043,0,1.889,0.863,1.889,1.924v12.66C16.479,18.827,15.634,19.689,14.591,19.689 M7.985,3.658c-0.779,0-1.413,0.649-1.413,1.448
	v12.66c0,0.799,0.634,1.448,1.413,1.448h6.605c0.779,0,1.414-0.649,1.414-1.448V5.106c0-0.799-0.635-1.448-1.414-1.448H7.985z"/>
<path fill="#FFFFFF" d="M13.806,16.329H8.768c-0.798,0-1.446-0.697-1.446-1.555v-8.54c0-0.859,0.648-1.556,1.446-1.556h5.038
	c0.799,0,1.447,0.697,1.447,1.556v8.54C15.253,15.631,14.604,16.329,13.806,16.329 M8.768,5.053c-0.592,0-1.073,0.528-1.073,1.181
	v8.54c0,0.652,0.481,1.182,1.073,1.182h5.038c0.593,0,1.076-0.529,1.076-1.182v-8.54c0-0.653-0.483-1.181-1.076-1.181H8.768z"/>
<path fill="#B3C48D" d="M11.287,18.723c-0.534,0-0.969-0.435-0.969-0.967c0-0.535,0.435-0.968,0.969-0.968s0.969,0.433,0.969,0.968
	C12.256,18.289,11.821,18.723,11.287,18.723"/>
</svg>
