<?xml version="1.0" encoding="utf-8"?>
<!-- Generator: Adobe Illustrator 15.0.0, SVG Export Plug-In . SVG Version: 6.00 Build 0)  -->
<!DOCTYPE svg PUBLIC "-//W3C//DTD SVG 1.1//EN" "http://www.w3.org/Graphics/SVG/1.1/DTD/svg11.dtd">
<svg version="1.1" id="Layer_1" xmlns="http://www.w3.org/2000/svg" xmlns:xlink="http://www.w3.org/1999/xlink" x="0px" y="0px"
	 width="20.16px" height="19.96px" viewBox="0 0 20.16 19.96" enable-background="new 0 0 20.16 19.96" xml:space="preserve">
<path fill-rule="evenodd" clip-rule="evenodd" fill="#2A78B1" d="M20.16,19.96h-4.31V12.24c0-1.79-0.62-3.019-2.18-3.019
	c-1.19,0-1.9,0.829-2.21,1.628c-0.12,0.281-0.141,0.68-0.141,1.08v8.031h-4.31v-9.48c0-1.74-0.06-3.19-0.12-4.44h3.75l0.19,1.931
	h0.09c0.569-0.91,1.96-2.25,4.28-2.25c2.84,0,4.959,1.909,4.959,6.009V19.96z M2.24,4.33c-1.359,0-2.239-0.971-2.239-2.17
	C0.001,0.939,0.91,0,2.301,0c1.39,0,2.24,0.939,2.27,2.16C4.57,3.359,3.69,4.33,2.24,4.33z M4.431,19.96h-4.31V6.04h4.31V19.96z"/>
</svg>
