<?xml version="1.0" encoding="utf-8"?>
<!-- Generator: Adobe Illustrator 18.1.0, SVG Export Plug-In . SVG Version: 6.00 Build 0)  -->
<svg version="1.1" id="Layer_1" xmlns="http://www.w3.org/2000/svg" xmlns:xlink="http://www.w3.org/1999/xlink" x="0px" y="0px"
	 viewBox="0 0 63 63" enable-background="new 0 0 63 63" xml:space="preserve">
<path fill="#C7C8CC" d="M31.5,0C14.1,0,0,14.1,0,31.5C0,48.9,14.1,63,31.5,63C48.9,63,63,48.9,63,31.5C63,14.1,48.9,0,31.5,0
	 M23.8,44.6h-6.4V24h6.4V44.6z M20.6,21.5c-2,0-3.3-1.4-3.3-3.2c0-1.8,1.3-3.2,3.4-3.2c2.1,0,3.3,1.4,3.4,3.2
	C24,20.1,22.7,21.5,20.6,21.5 M47.1,44.6h-6.4V33.2c0-2.6-0.9-4.4-3.2-4.4c-1.8,0-2.8,1.2-3.3,2.4c-0.2,0.4-0.2,1-0.2,1.6v11.8h-6.4
	v-14c0-2.6-0.1-4.7-0.2-6.5H33l0.3,2.9h0.1c0.8-1.3,2.9-3.3,6.3-3.3c4.2,0,7.3,2.8,7.3,8.9V44.6z"/>
</svg>
