<?xml version="1.0" encoding="utf-8"?>
<!-- Generator: Adobe Illustrator 15.0.0, SVG Export Plug-In . SVG Version: 6.00 Build 0)  -->
<!DOCTYPE svg PUBLIC "-//W3C//DTD SVG 1.1//EN" "http://www.w3.org/Graphics/SVG/1.1/DTD/svg11.dtd">
<svg version="1.1" id="Layer_1" xmlns="http://www.w3.org/2000/svg" xmlns:xlink="http://www.w3.org/1999/xlink" x="0px" y="0px"
	 width="20.16px" height="19.96px" viewBox="0 0 20.16 19.96" enable-background="new 0 0 20.16 19.96" xml:space="preserve">
<path fill-rule="evenodd" clip-rule="evenodd" fill="#3A8AC4" d="M20.16,19.96h-4.31v-7.72c0-1.79-0.62-3.02-2.18-3.02
	c-1.19,0-1.9,0.83-2.21,1.629c-0.12,0.28-0.141,0.68-0.141,1.08v8.03H7.01V10.48c0-1.74-0.06-3.19-0.12-4.44h3.75l0.19,1.93h0.09
	c0.569-0.91,1.96-2.25,4.28-2.25c2.84,0,4.959,1.91,4.959,6.01V19.96z M2.24,4.33C0.88,4.33,0,3.36,0,2.16C0,0.94,0.91,0,2.3,0
	s2.24,0.94,2.27,2.16C4.57,3.36,3.69,4.33,2.24,4.33z M4.43,19.96H0.12V6.04h4.31V19.96z"/>
</svg>
