<?xml version="1.0" encoding="utf-8"?>
<!-- Generator: Adobe Illustrator 16.0.4, SVG Export Plug-In . SVG Version: 6.00 Build 0)  -->
<!DOCTYPE svg PUBLIC "-//W3C//DTD SVG 1.1//EN" "http://www.w3.org/Graphics/SVG/1.1/DTD/svg11.dtd">
<svg version="1.1" id="Layer_1" xmlns="http://www.w3.org/2000/svg" xmlns:xlink="http://www.w3.org/1999/xlink" x="0px" y="0px"
	 width="22.575px" height="22.576px" viewBox="0 0 22.575 22.576" enable-background="new 0 0 22.575 22.576" xml:space="preserve">
<path d="M20.788,22.576h-19C0.802,22.576,0,21.774,0,20.788v-19C0,0.802,0.802,0,1.788,0h19c0.984,0,1.787,0.802,1.787,1.788v19
	C22.575,21.774,21.772,22.576,20.788,22.576"/>
<polygon fill-rule="evenodd" clip-rule="evenodd" fill="#B3C48D" points="16.589,10.4 15.202,13.691 7.372,13.691 5.984,10.4 "/>
<path fill="#B3C48D" d="M19.142,7.997c-0.216-0.097-0.47,0.001-0.567,0.218l-2.811,6.328H6.811L3.999,8.215
	C3.903,7.998,3.649,7.9,3.433,7.997S3.118,8.348,3.215,8.563l2.926,6.582c0.07,0.161,0.227,0.256,0.392,0.256
	c0.022,0,0.044-0.006,0.066-0.007c0.02,0.001,0.039,0.006,0.06,0.006h9.233c0.024,0,0.049-0.005,0.072-0.008
	c0.025,0.003,0.052,0.009,0.078,0.009c0.164,0,0.32-0.095,0.393-0.256l2.926-6.582C19.456,8.348,19.358,8.094,19.142,7.997"/>
<path fill="#B3C48D" d="M16.314,9.986H6.167c-0.159,0-0.286-0.129-0.286-0.287c0-0.156,0.127-0.285,0.286-0.285h10.147
	c0.158,0,0.286,0.129,0.286,0.285C16.601,9.857,16.473,9.986,16.314,9.986"/>
<path fill="#B3C48D" d="M13.724,16.626H9.272c-0.105,0-0.19-0.086-0.19-0.19c0-0.106,0.085-0.191,0.19-0.191h4.451
	c0.106,0,0.191,0.085,0.191,0.191C13.915,16.54,13.83,16.626,13.724,16.626"/>
<path fill="#FFFFFF" d="M8.543,19.417c-0.939,0-1.702-0.765-1.702-1.702c0-0.939,0.763-1.703,1.702-1.703
	c0.94,0,1.705,0.764,1.705,1.703C10.248,18.652,9.483,19.417,8.543,19.417 M8.543,16.857c-0.471,0-0.854,0.384-0.854,0.857
	c0,0.471,0.384,0.854,0.854,0.854c0.473,0,0.856-0.383,0.856-0.854C9.399,17.241,9.016,16.857,8.543,16.857"/>
<path fill="#FFFFFF" d="M14.395,19.417c-0.939,0-1.703-0.765-1.703-1.702c0-0.939,0.764-1.703,1.703-1.703s1.703,0.764,1.703,1.703
	C16.098,18.652,15.334,19.417,14.395,19.417 M14.395,16.857c-0.472,0-0.855,0.384-0.855,0.857c0,0.471,0.384,0.854,0.855,0.854
	s0.856-0.383,0.856-0.854C15.251,17.241,14.866,16.857,14.395,16.857"/>
<path fill-rule="evenodd" clip-rule="evenodd" fill="#FFFFFF" d="M7.081,6.408c0-0.505,0.411-0.914,0.915-0.914
	c0.505,0,0.914,0.409,0.914,0.914c0,0.504-0.409,0.914-0.914,0.914C7.492,7.322,7.081,6.912,7.081,6.408"/>
<path fill-rule="evenodd" clip-rule="evenodd" fill="#FFFFFF" d="M9.275,6.408c0-0.505,0.41-0.914,0.914-0.914
	c0.505,0,0.915,0.409,0.915,0.914c0,0.504-0.41,0.914-0.915,0.914C9.686,7.322,9.275,6.912,9.275,6.408"/>
<path fill-rule="evenodd" clip-rule="evenodd" fill="#FFFFFF" d="M11.469,6.408c0-0.505,0.409-0.914,0.915-0.914
	c0.505,0,0.914,0.409,0.914,0.914c0,0.504-0.409,0.914-0.914,0.914C11.878,7.322,11.469,6.912,11.469,6.408"/>
<path fill-rule="evenodd" clip-rule="evenodd" fill="#FFFFFF" d="M13.664,6.408c0-0.505,0.408-0.914,0.913-0.914
	s0.914,0.409,0.914,0.914c0,0.504-0.409,0.914-0.914,0.914S13.664,6.912,13.664,6.408"/>
<path fill-rule="evenodd" clip-rule="evenodd" fill="#FFFFFF" d="M10.373,8.236c0-0.506,0.408-0.914,0.913-0.914
	S12.2,7.73,12.2,8.236c0,0.505-0.409,0.915-0.914,0.915S10.373,8.741,10.373,8.236"/>
<path fill-rule="evenodd" clip-rule="evenodd" fill="#FFFFFF" d="M14.762,8.236c0-0.506,0.408-0.914,0.912-0.914
	c0.505,0,0.915,0.408,0.915,0.914c0,0.505-0.41,0.914-0.915,0.914C15.17,9.15,14.762,8.741,14.762,8.236"/>
<path fill-rule="evenodd" clip-rule="evenodd" fill="#FFFFFF" d="M12.565,8.236c0-0.506,0.41-0.914,0.915-0.914
	c0.504,0,0.914,0.408,0.914,0.914c0,0.505-0.41,0.914-0.914,0.914C12.976,9.15,12.565,8.741,12.565,8.236"/>
<path fill-rule="evenodd" clip-rule="evenodd" fill="#FFFFFF" d="M8.179,8.236c0-0.506,0.409-0.914,0.914-0.914
	s0.915,0.408,0.915,0.914c0,0.505-0.41,0.914-0.915,0.914S8.179,8.741,8.179,8.236"/>
<path fill-rule="evenodd" clip-rule="evenodd" fill="#FFFFFF" d="M5.985,8.236c0-0.506,0.409-0.914,0.914-0.914
	S7.813,7.73,7.813,8.236c0,0.505-0.409,0.914-0.914,0.914S5.985,8.741,5.985,8.236"/>
</svg>
