<?xml version="1.0" encoding="utf-8"?>
<!-- Generator: Adobe Illustrator 18.1.0, SVG Export Plug-In . SVG Version: 6.00 Build 0)  -->
<svg version="1.1" id="Layer_1" xmlns="http://www.w3.org/2000/svg" xmlns:xlink="http://www.w3.org/1999/xlink" x="0px" y="0px"
	 viewBox="0 0 89 71.9" enable-background="new 0 0 89 71.9" xml:space="preserve">
<path fill-rule="evenodd" clip-rule="evenodd" fill="#3A89C3" d="M5.3,0h78.3C86.6,0,89,2.4,89,5.4c0,3-2.4,5.4-5.3,5.4H5.3
	C2.4,10.8,0,8.3,0,5.4C0,2.4,2.4,0,5.3,0z M5.3,30.5h78.3c2.9,0,5.3,2.4,5.3,5.4c0,3-2.4,5.4-5.3,5.4H5.3c-2.9,0-5.3-2.4-5.3-5.4
	C0,33,2.4,30.5,5.3,30.5z M5.3,61.1h78.3c2.9,0,5.3,2.4,5.3,5.4c0,3-2.4,5.4-5.3,5.4H5.3c-2.9,0-5.3-2.4-5.3-5.4
	C0,63.5,2.4,61.1,5.3,61.1z"/>
</svg>
