<?xml version="1.0" encoding="utf-8"?>
<!-- Generator: Adobe Illustrator 18.1.1, SVG Export Plug-In . SVG Version: 6.00 Build 0)  -->
<svg version="1.1" id="Layer_1" xmlns="http://www.w3.org/2000/svg" xmlns:xlink="http://www.w3.org/1999/xlink" x="0px" y="0px"
	 viewBox="0 0 48 48" enable-background="new 0 0 48 48" xml:space="preserve">
<path fill="#ffffff" d="M0,24h22V2C9.8,2,0,11.8,0,24z M22,48V26H0C0,38.2,9.8,48,22,48z M41.4,37.7c2.9-2.8,5-6.4,6-10.4l-8.2,8.2
	L41.4,37.7z M36.5,32.8L48,21.4c-0.1-2-0.4-3.9-0.9-5.8L33.2,29.5L36.5,32.8z M30.5,26.8l15-15c-0.8-1.4-1.7-2.8-2.7-4L27.2,23.5
	L30.5,26.8z M26,0v7.3l6.4-6.4C30.4,0.3,28.2,0,26,0z M36.2,2.5L26,12.7v6.7L40.2,5.2C38.9,4.1,37.6,3.2,36.2,2.5z M24,48
	c5.9,0,11.3-2.4,15.3-6.2L24,26.5V48z"/>
</svg>
