<?xml version="1.0" encoding="utf-8"?>
<!-- Generator: Adobe Illustrator 18.1.0, SVG Export Plug-In . SVG Version: 6.00 Build 0)  -->
<svg version="1.1" id="Layer_1" xmlns="http://www.w3.org/2000/svg" xmlns:xlink="http://www.w3.org/1999/xlink" x="0px" y="0px"
	 viewBox="0 0.2 534.3 559.6" enable-background="new 0 0.2 534.3 559.6" xml:space="preserve">
<g>
	<title>Layer 1</title>
	<g id="svg_1">
		<path fill="#7A8C98" d="M215.7,25.9c105.2,0,191,85.5,191,191s-85.5,191-191,191c-105.2-1-190-85.5-190-191.7
			C25.7,110.7,110.5,25.9,215.7,25.9 M534.3,540.5L382,377.8c30.7-37.7,55.8-106.2,55.8-158.3C436.8,97.7,338.9,0.2,218.4,0.2
			C97.5,0.2,0,97.7,0,219.2c0,120.9,97.5,219.1,218.4,219.1c52.1,0,101.2-18.7,138.6-49.8l158.3,171.3L534.3,540.5L534.3,540.5z"/>
	</g>
</g>
</svg>
