<?xml version="1.0" encoding="utf-8"?>
<!-- Generator: Adobe Illustrator 18.1.0, SVG Export Plug-In . SVG Version: 6.00 Build 0)  -->
<svg version="1.1" id="Layer_1" xmlns="http://www.w3.org/2000/svg" xmlns:xlink="http://www.w3.org/1999/xlink" x="0px" y="0px"
	 viewBox="0 0 70.2 71.1" enable-background="new 0 0 70.2 71.1" xml:space="preserve">
<g>
	<path fill-rule="evenodd" clip-rule="evenodd" fill="#7A8C98" d="M0,35.6c0,19.6,15.7,35.6,35.1,35.6c19.4,0,35.1-15.9,35.1-35.6
		C70.2,15.9,54.5,0,35.1,0C15.7,0,0,15.9,0,35.6 M3.3,35.6c0-17.8,14.2-32.2,31.8-32.2c17.5,0,31.8,14.4,31.8,32.2
		c0,17.8-14.2,32.2-31.8,32.2C17.5,67.8,3.3,53.4,3.3,35.6"/>
	<path fill="#7A8C98" d="M62.9,56.6c-1.6-2.5-9.1-5.2-14.4-7.4c-5.3-2.2-6.6-3-6.6-3l0-5.1c0,0,2-1.5,2.6-6.3c1.3,0.4,2.6-1.8,2.6-3
		c0.1-1.1-0.2-4.2-1.7-3.9c0.3-2.3,0.5-4.4,0.4-5.6c-0.4-4.1-4.4-8.4-10.6-8.4c-6.2,0-10.2,4.3-10.6,8.4c-0.1,1.1,0.1,3.3,0.4,5.6
		c-1.5-0.3-1.7,2.8-1.7,3.9c0.1,1.2,1.4,3.4,2.6,3c0.6,4.8,2.6,6.3,2.6,6.3l-0.1,5.1c0,0-1.3,0.8-6.6,3c-5.3,2.2-11.6,4.3-13.2,6.8
		c-1.4,2.3,13.7,12.3,13.7,12.3L47,68.2C47,68.2,64.4,58.9,62.9,56.6z"/>
</g>
</svg>
