<?xml version="1.0" encoding="utf-8"?>
<!-- Generator: Adobe Illustrator 16.0.4, SVG Export Plug-In . SVG Version: 6.00 Build 0)  -->
<!DOCTYPE svg PUBLIC "-//W3C//DTD SVG 1.1//EN" "http://www.w3.org/Graphics/SVG/1.1/DTD/svg11.dtd">
<svg version="1.1" id="Layer_1" xmlns="http://www.w3.org/2000/svg" xmlns:xlink="http://www.w3.org/1999/xlink" x="0px" y="0px"
	 width="22.575px" height="22.575px" viewBox="0 0 22.575 22.575" enable-background="new 0 0 22.575 22.575" xml:space="preserve">
<path d="M20.788,22.575h-19C0.802,22.575,0,21.773,0,20.788v-19C0,0.802,0.802,0,1.788,0h19c0.985,0,1.787,0.802,1.787,1.788v19
	C22.575,21.773,21.773,22.575,20.788,22.575"/>
<path fill-rule="evenodd" clip-rule="evenodd" fill="#B3C48D" d="M13.153,17.85l-0.116,0.82c-0.315,0.471-0.744,1.078-1.716,1.078
	c-0.967,0-1.517-0.566-1.795-1.078v-0.879h3.511L13.153,17.85z"/>
<polygon fill="#FFFFFF" points="10.402,14.282 10.054,12.487 9.436,11.055 8.901,10.057 10.255,10.721 10.896,10.227 11.597,10.671 
	12.159,10.217 12.744,10.649 13.961,10.118 12.707,12.653 12.439,14.275 11.97,14.198 12.265,12.475 12.958,11.074 12.683,11.194 
	12.174,10.817 11.632,11.255 10.925,10.807 10.312,11.28 9.981,11.118 10.516,12.373 10.87,14.191 "/>
<path fill="#FFFFFF" d="M16.89,7.94l-0.108-0.559l-0.083-0.314L16.602,6.8l-0.109-0.263l-0.231-0.492l-0.262-0.459l-0.355-0.482
	l-0.339-0.393l-0.412-0.38l-0.431-0.337L14.21,3.838l-0.472-0.262l-0.493-0.226l-0.276-0.098l-0.29-0.085l-0.548-0.112l-0.526-0.054
	L10.992,3l-0.566,0.059L9.88,3.17L9.59,3.256l-0.274,0.1l-0.49,0.224L8.597,3.706L8.135,3.979l-0.47,0.366l-0.38,0.35L6.918,5.12
	L6.59,5.563L6.306,6.061L6.185,6.308L5.972,6.81L5.877,7.067L5.79,7.394L5.681,7.959l-0.053,0.55v0.677l0.028,0.357l0.052,0.335
	l0.169,0.636l0.198,0.558l0.42,0.747l0.615,0.859l1.592,1.646l0.209,0.287l0.164,0.278L9.2,15.298v2.809l0.025,0.231l0.06,0.221
	l0.171,0.377l0.213,0.336l0.158,0.156l0.109,0.129l0.158,0.136l0.166,0.108l0.216,0.101l0.384,0.116l0.201,0.032l0.432,0.004
	l0.189-0.029l0.388-0.114l0.21-0.091l0.176-0.112l0.152-0.124l0.137-0.153l0.123-0.114l0.238-0.358l0.17-0.361l0.064-0.227
	l0.032-0.232l0.003-2.84l0.125-0.409l0.163-0.278l0.208-0.286l1.57-1.621l0.623-0.86l0.418-0.734l0.223-0.615l0.153-0.587
	l0.06-0.382l0.025-0.356V8.521L16.89,7.94z M9.676,15.461h3.227v0.422H9.676V15.461z M9.676,16.264h3.227v0.422H9.676V16.264z
	 M9.676,17.068h3.227v0.422H9.676V17.068z M12.878,18.26l-0.043,0.155l-0.143,0.304l-0.17,0.269l-0.111,0.103l-0.12,0.139
	l-0.105,0.087l-0.117,0.075l-0.153,0.07l-0.32,0.096l-0.137,0.02h-0.344l-0.135-0.02l-0.321-0.097l-0.152-0.069l-0.118-0.073
	l-0.104-0.089l-0.108-0.12l-0.124-0.121L9.88,18.717l-0.142-0.301L9.695,18.26l-0.02-0.17v-0.219h3.226v0.219L12.878,18.26z
	 M16.447,9.469l-0.052,0.322l-0.146,0.569L16.06,10.89l-0.389,0.684l-0.584,0.811l-1.569,1.621l-0.245,0.335l-0.194,0.328
	l-0.132,0.412H9.627l-0.056-0.206l-0.053-0.161l-0.203-0.354l-0.236-0.328l-1.592-1.646l-0.584-0.811l-0.389-0.682l-0.184-0.513
	L6.176,9.791L6.131,9.487L6.103,9.168V8.532l0.049-0.506l0.102-0.524l0.074-0.285l0.188-0.484L6.727,6.28l0.255-0.445l0.308-0.421
	l0.33-0.381l0.353-0.327l0.425-0.329l0.202-0.125L9.04,4.004l0.451-0.207l0.247-0.088l0.258-0.077l0.501-0.104l0.506-0.053h0.568
	l0.488,0.051l0.5,0.102l0.262,0.076l0.248,0.087L13.52,4l0.219,0.118l0.442,0.26l0.404,0.317l0.371,0.339l0.316,0.37l0.321,0.432
	l0.247,0.432l0.215,0.458l0.188,0.482l0.074,0.283l0.101,0.518l0.052,0.524v0.619L16.447,9.469z"/>
</svg>
