<?xml version="1.0" encoding="utf-8"?>
<!-- Generator: Adobe Illustrator 15.0.0, SVG Export Plug-In . SVG Version: 6.00 Build 0)  -->
<!DOCTYPE svg PUBLIC "-//W3C//DTD SVG 1.1//EN" "http://www.w3.org/Graphics/SVG/1.1/DTD/svg11.dtd">
<svg version="1.1" id="Layer_1" xmlns="http://www.w3.org/2000/svg" xmlns:xlink="http://www.w3.org/1999/xlink" x="0px" y="0px"
	 width="21px" height="21px" viewBox="0 0 21 21" enable-background="new 0 0 21 21" xml:space="preserve">
<path fill="#7A8C98" d="M6,7.03l3.47,3.47L6,13.97L7.03,15l3.47-3.47L13.97,15L15,13.97l-3.47-3.47L15,7.03L13.97,6L10.5,9.47
	L7.03,6L6,7.03z M1,10.5C1,5.25,5.25,1,10.5,1S20,5.25,20,10.5S15.75,20,10.5,20S1,15.75,1,10.5z M0,10.5C0,16.3,4.7,21,10.5,21
	S21,16.3,21,10.5S16.3,0,10.5,0S0,4.7,0,10.5z"/>
</svg>
