<?xml version="1.0" encoding="utf-8"?>
<!-- Generator: Adobe Illustrator 18.1.0, SVG Export Plug-In . SVG Version: 6.00 Build 0)  -->
<svg version="1.1" id="Layer_1" xmlns="http://www.w3.org/2000/svg" xmlns:xlink="http://www.w3.org/1999/xlink" x="0px" y="0px"
	 viewBox="0 0 63 63" enable-background="new 0 0 63 63" xml:space="preserve">
<path fill="#C7CACC" d="M31.5,0C14.1,0,0,14.1,0,31.5C0,48.9,14.1,63,31.5,63C48.9,63,63,48.9,63,31.5C63,14.1,48.9,0,31.5,0"/>
<path fill="#444e56" d="M40.3,26h-2.1v-1.2c-0.8,0.9-1.5,1.4-2.2,1.4c-0.7,0-1.1-0.3-1.3-0.9c-0.1-0.3-0.2-0.9-0.2-1.7v-9h2.1v8.4
	v0.8c0,0.3,0.2,0.4,0.5,0.4c0.4,0,0.8-0.4,1.2-1v-8.7h2.1V26z"/>
<path fill="#444e56" d="M32.8,18.4c0-1.2-0.2-2.1-0.7-2.7c-0.6-0.8-1.5-1.1-2.4-1.1c-1,0-1.8,0.3-2.4,1.1c-0.4,0.6-0.7,1.5-0.7,2.7
	l0,4c0,1.2,0.2,2,0.6,2.6c0.6,0.8,1.5,1.2,2.4,1.2c0.9,0,1.8-0.4,2.4-1.2c0.4-0.6,0.6-1.4,0.6-2.6V18.4z M30.7,22.7
	c0.1,1.1-0.2,1.7-0.9,1.7c-0.7,0-1-0.6-0.9-1.7v-4.5c-0.1-1.1,0.2-1.7,0.9-1.7c0.7,0,1,0.5,0.9,1.7L30.7,22.7z"/>
<path fill="#444e56" d="M24.4,19.9V26h-2.3v-6.2c0,0-2.3-7.6-2.8-9h2.4l1.6,5.9l1.6-5.9h2.4L24.4,19.9z"/>
<path fill="#444e56" d="M34.6,38.2c-0.3,0-0.7,0.2-1.1,0.5l0,6.8c0.3,0.3,0.7,0.5,1.1,0.5c0.6,0,0.9-0.4,0.9-1.6v-4.8
	C35.4,38.5,35.1,38.2,34.6,38.2"/>
<path fill="#444e56" d="M42.9,39.5c0-1-0.3-1.4-0.9-1.4c-0.7,0-1,0.3-1,1.3v1.2l1.9,0V39.5z"/>
<path fill="#444e56" d="M47.6,33.8c0,0-0.3-2.3-1.3-3.3c-1.3-1.3-2.7-1.3-3.4-1.4c-4.7-0.3-11.8-0.3-11.8-0.3h0c0,0-7.1,0-11.8,0.3
	c-0.7,0.1-2.1,0.1-3.4,1.4c-1,1-1.3,3.3-1.3,3.3s-0.3,2.7-0.3,5.4v2.5c0,2.7,0.3,5.4,0.3,5.4s0.3,2.3,1.3,3.3c1.3,1.3,3,1.3,3.7,1.4
	c2.7,0.3,11.4,0.3,11.4,0.3s7.1,0,11.8-0.3c0.7-0.1,2.1-0.1,3.4-1.4c1-1,1.3-3.3,1.3-3.3s0.3-2.7,0.3-5.4v-2.5
	C47.9,36.5,47.6,33.8,47.6,33.8 M21.7,47.7h-2.3V34.8h-2.4v-2.1l7.1,0v2.1h-2.5V47.7z M29.8,47.7h-2.1v-1.2
	c-0.8,0.9-1.5,1.4-2.2,1.4c-0.7,0-1.1-0.3-1.3-0.9c-0.1-0.3-0.2-0.9-0.2-1.7v-8.9H26v8.3v0.8c0,0.3,0.2,0.4,0.5,0.4
	c0.4,0,0.8-0.4,1.2-1v-8.6h2.1V47.7z M37.5,44.4c0,1-0.1,1.8-0.2,2.3c-0.3,0.8-0.9,1.3-1.7,1.3c-0.7,0-1.5-0.4-2.1-1.3l0,1.1h-2
	V32.7h2l0,4.9c0.7-0.8,1.4-1.3,2.2-1.3c0.8,0,1.4,0.5,1.6,1.3c0.1,0.5,0.3,1.2,0.3,2.2V44.4z M42,46c0.5,0,0.8-0.3,0.9-0.8
	c0-0.1,0-0.6,0-1.4h2.1v0.3c0,0.7-0.1,1.1-0.1,1.3c-0.1,0.5-0.2,0.9-0.5,1.2c-0.6,0.8-1.4,1.2-2.5,1.2c-1.1,0-1.9-0.4-2.5-1.2
	c-0.4-0.6-0.7-1.4-0.7-2.6v-3.9c0-1.2,0.3-2.1,0.7-2.7c0.6-0.8,1.4-1.2,2.4-1.2c1,0,1.8,0.4,2.4,1.2c0.4,0.6,0.7,1.4,0.7,2.7v2.3H41
	v2C41,45.5,41.3,46,42,46"/>
</svg>
